<svg xmlns="http://www.w3.org/2000/svg" xmlns:xlink="http://www.w3.org/1999/xlink" xmlns:lucid="lucid" width="3676.8" height="3841.6"><g transform="translate(0 1259.1999999999998)" lucid:page-tab-id="0_0"><path d="M1171 95.67v1836.5" fill="none"/><path d="M1171 95.67v10.03m0 10.04v20.07m0 10.04v20.08m0 10.03v20.07m0 10.04v20.07m0 10.03v20.08m0 10.03v20.07m0 10.04v20.07m0 10.03v20.08m0 10.03v20.06m0 10.04v20.07m0 10.03v20.08m0 10.03V467m0 10.04v20.07m0 10.02v20.08m0 10.03v20.07m0 10.04v20.07m0 10.04v20.08m0 10.03v20.07m0 10.04v20.07m0 10.03v20.08m0 10.03v20.07m0 10.04v20.07m0 10.04v20.06m0 10.03v20.06m0 10.04v20.07m0 10.04v20.08m0 10.03v20.08m0 10.04v20.07m0 10.03v20.07m0 10.03v20.07m0 10.03V1039m0 10.04v20.07m0 10.04v20.07m0 10.05v20.07m0 10.04v20.07m0 10.03v20.07m0 10.04v20.07m0 10.04v20.07m0 10.03v20.07m0 10.04v20.06m0 10.04v20.07m0 10.03v20.08m0 10.03v20.08m0 10.04v20.07m0 10.02v20.08m0 10.03v20.07m0 10.04v20.07m0 10.04v20.08m0 10.03v20.07m0 10.04v20.07m0 10.03v20.08m0 10.03v20.07m0 10.04v20.07m0 10.03v20.08m0 10.03v20.06m0 10.04v20.07m0 10.03v20.08m0 10.03v20.08m0 10.04V1882m0 10.02v20.08m0 10.03v10.04" stroke="#000" stroke-width="2" fill="none"/><path d="M1172 95.67h-2v-1h2z"/><path/><path d="M2200 901v1419" fill="none"/><path d="M2200 901v10.06m0 10.07v20.13m0 10.06v20.13m0 10.06v20.14m0 10.06v20.13m0 10.06V1062m0 10.07v20.1m0 10.08v20.13m0 10.07v20.13m0 10.06v20.13m0 10.05v20.13m0 10.06v20.13m0 10.07v20.12m0 10.07v20.13m0 10.06v20.13m0 10.06v20.14m0 10.06v20.13m0 10.06v20.12m0 10.07v20.1m0 10.08v20.13m0 10.07v20.13m0 10.06v20.13m0 10.05v20.13m0 10.06v20.13m0 10.06v20.13m0 10.06v20.13m0 10.06v20.14m0 10.06v20.13m0 10.06v20.12m0 10.07v20.1m0 10.08v20.13m0 10.07V1847m0 10.06v20.13m0 10.05v20.13m0 10.06v20.13m0 10.07v20.12m0 10.07v20.13m0 10.06v20.13m0 10.06v20.14m0 10.06v20.13m0 10.06v20.12m0 10.07v20.1m0 10.08v20.13m0 10.07v20.13m0 10.06v20.13m0 10.05v20.13m0 10.06v20.13m0 10.07V2320" stroke="#000" stroke-width="2" fill="none"/><path d="M2201 901h-2v-1h2z"/><path/><path d="M1150 1892.17H170.25" fill="none"/><path d="M1150 1892.17h-9.9m-9.9 0h-19.8m-9.88 0h-19.8m-9.9 0h-19.8m-9.88 0h-19.8m-9.9 0h-19.78m-9.9 0h-19.8m-9.9 0H932.3m-9.9 0h-19.8m-9.9 0H872.9m-9.9 0h-19.8m-9.9 0h-19.78m-9.9 0h-19.8m-9.9 0h-19.78m-9.9 0h-19.8m-9.9 0h-19.78m-9.9 0h-19.8m-9.9 0H635.4m-9.9 0h-19.8m-9.88 0H576m-9.9 0h-19.8m-9.88 0h-19.8m-9.9 0h-19.8m-9.88 0h-19.8m-9.9 0h-19.8m-9.88 0h-19.8m-9.9 0H368.2m-9.9 0h-19.8m-9.9 0H308.8m-9.9 0h-19.8m-9.9 0h-19.78m-9.9 0h-19.8m-9.9 0h-19.78m-9.9 0h-9.9" stroke="#000" stroke-width="2" fill="none"/><path d="M1151 1893.17h-1v-2h1zM169.5 1896.8l-14.25-4.63 14.26-4.64z"/><path d="M170.5 1898.18l-18.5-6 18.5-6.03zm-12.02-6l10.03 3.25v-6.52z"/><use xlink:href="#a" transform="matrix(1,0,0,1,574.1041666666666,1866.5666666666666) translate(0 14.4)"/><use xlink:href="#b" transform="matrix(1,0,0,1,574.1041666666666,1866.5666666666666) translate(88.80000000000001 14.4)"/><path d="M2201 958.33v1069" fill="none"/><path d="M2201 958.33v9.9m0 9.9v19.8m0 9.9v19.8m0 9.9v19.78m0 9.9v19.8m0 9.9v19.8m0 9.9v19.8m0 9.9v19.8m0 9.9v19.8m0 9.9v19.78m0 9.9v19.8m0 9.9v19.8m0 9.9v19.78m0 9.9v19.8m0 9.9v19.8m0 9.9v19.8m0 9.9v19.78m0 9.9v19.8m0 9.9v19.8m0 9.9v19.8m0 9.88v19.8m0 9.9v19.8m0 9.9v19.8m0 9.9v19.78m0 9.9v19.8m0 9.9v19.8m0 9.9v19.8m0 9.9v19.78m0 9.9v19.8m0 9.9v19.8m0 9.9v19.78m0 9.9v19.8m0 9.9v19.8m0 9.9v19.8m0 9.9v19.78m0 9.9v19.8m0 9.9v9.9M152 1609.1h979.76" stroke="#000" stroke-width="2" fill="none"/><path d="M152 1610.1h-1v-2h1zM1146.76 1609.1l-14.26 4.64v-9.28z"/><path d="M1150 1609.1l-18.5 6v-12zm-16.5 3.26l10.03-3.26-10.03-3.26z"/><use xlink:href="#c" transform="matrix(1,0,0,1,530.6281666666711,1583.5000000000007) translate(0 14.4)"/><use xlink:href="#d" transform="matrix(1,0,0,1,530.6281666666711,1583.5000000000007) translate(86.95 14.4)"/><use xlink:href="#e" transform="matrix(1,0,0,1,530.6281666666711,1583.5000000000007) translate(156.95 14.4)"/><path d="M1931 465.67v1295.5" fill="none"/><path d="M1931 465.67v10.04m0 10.05v20.1m0 10.03v20.1m0 10.03v20.1m0 10.04v20.08m0 10.04v20.1m0 10.03v20.08m0 10.04v20.08m0 10.05v20.08m0 10.05v20.08m0 10.04V777m0 10.03v20.1m0 10.03v20.08m0 10.05v20.07m0 10.04v20.1m0 10.04v20.1m0 10.03v20.1m0 10.03v20.08m0 10.05V1018m0 10.05v20.1m0 10.03v20.1m0 10.03v20.1m0 10.04v20.08m0 10.05v20.08m0 10.04v20.08m0 10.04v20.1m0 10.03v20.08m0 10.05v20.08m0 10.05v20.1m0 10.03v20.1m0 10.03v20.1m0 10.03v20.07m0 10.05v20.08m0 10.04v20.1m0 10.03v20.1m0 10.03v20.1m0 10.03v20.08m0 10.06v20.08m0 10.04v20.1m0 10.03v20.1m0 10.04v20.1m0 10.03v20.08m0 10.05v20.08m0 10.04v10.05" stroke="#000" stroke-width="2" fill="none"/><path d="M1932 465.67h-2v-1h2z"/><path d="M1491 205.67v712.25h-4.5v712.25" fill="none"/><path d="M1491 205.67v9.92m0 9.9v19.86m0 9.92v19.85m0 9.93v19.84m0 9.93v19.84m0 9.93v19.84m0 9.93v19.85m0 9.92V424m0 9.9v19.86m0 9.92v19.85m0 9.92v19.85m0 9.92v19.85m0 9.92v19.84m0 9.92v19.85m0 9.93v19.85m0 9.93v19.85m0 9.93v19.84m0 9.93v19.84m0 9.92v19.85m0 9.92v19.84m0 9.92V811m0 9.93v19.85m0 9.92v19.85m0 9.92v19.85m0 9.92v7.68h-4.5v7.67m0 9.9v19.86m0 9.92v19.85m0 9.93v19.84m0 9.93v19.84m0 9.93v19.84m0 9.93v19.85m0 9.92V1134m0 9.9v19.86m0 9.92v19.85m0 9.92v19.85m0 9.92v19.85m0 9.92v19.84m0 9.92v19.85m0 9.93v19.85m0 9.93v19.85m0 9.93v19.84m0 9.93v19.84m0 9.92v19.85m0 9.92v19.84m0 9.92V1521m0 9.93v19.85m0 9.92v19.85m0 9.92v19.85m0 9.92v9.93" stroke="#000" stroke-width="2" fill="none"/><path d="M1492 205.67h-2v-1h2z"/><path/><path d="M381-355.33h260v120H381z" stroke="#000" stroke-width="2" fill="#fff"/><use xlink:href="#f" transform="matrix(1,0,0,1,381.0083333333332,-355.33333333333337) translate(35.15500000000001 63.15)"/><path d="M150.76-355.58c0 10.9-8.84 19.75-19.75 19.75-10.9 0-19.74-8.85-19.74-19.75s8.84-19.75 19.75-19.75c10.92 0 19.76 8.84 19.76 19.75z" stroke="#000" stroke-width="2" fill="#fff"/><path d="M91-375.33h80v158H91z" fill="none"/><path d="M131-335.83v55.3l40 63.2m-40-63.2l-40 63.2m0-98.75h80" stroke="#000" stroke-width="2" fill="none"/><use xlink:href="#g" transform="matrix(1,0,0,1,11.008333333333212,-217.33333333333337) translate(84.025 14.6)"/><path d="M511-234.33V1219" fill="none"/><path d="M511-234.33v10.1m0 10.08v20.2m0 10.08v20.2m0 10.08v20.2m0 10.1v20.17m0 10.1v20.18m0 10.1v20.18m0 10.1v20.17m0 10.1v20.18m0 10.1v20.18m0 10.1v20.18m0 10.1v20.18m0 10.1v20.17m0 10.1v20.17m0 10.1v20.18m0 10.1v20.18m0 10.1v20.18m0 10.1v20.18m0 10.1v20.18m0 10.1v20.18m0 10.1v20.18m0 10.1v20.18m0 10.1v20.17m0 10.1v20.18m0 10.1v20.18m0 10.08v20.2m0 10.1v20.18m0 10.1v20.18m0 10.1v20.17m0 10.1v20.18m0 10.1v20.2m0 10.08v20.2m0 10.08v20.2m0 10.08v20.18m0 10.1v20.18m0 10.1v20.18m0 10.1v20.18m0 10.1v20.18m0 10.1v20.17m0 10.1v20.2m0 10.08v20.2m0 10.08v20.2m0 10.08v20.18m0 10.1v20.18m0 10.1v20.18m0 10.1v20.18m0 10.1v20.18m0 10.1v20.17m0 10.1v10.1" stroke="#000" stroke-width="2" fill="none"/><path d="M512-234.33h-2v-1h2z"/><path/><path d="M131-278.66" stroke="#000" stroke-width="2" fill="none"/><path d="M471.77-141.67H152v-2h319.77zM152-141.67h-1v-2h1zM486.77-142.67l-14.26 4.64v-9.27z"/><path d="M490-142.67l-18.5 6.02v-12.03zm-16.5 3.26l10.04-3.27-10.03-3.26z"/><use xlink:href="#h" transform="matrix(1,0,0,1,164.6583333333332,-168.26666666666688) translate(0 14.4)"/><use xlink:href="#i" transform="matrix(1,0,0,1,164.6583333333332,-168.26666666666688) translate(76.95 14.4)"/><use xlink:href="#j" transform="matrix(1,0,0,1,164.6583333333332,-168.26666666666688) translate(131.9 14.4)"/><use xlink:href="#k" transform="matrix(1,0,0,1,164.6583333333332,-168.26666666666688) translate(224.8 14.4)"/><path d="M491-155.33h40v380h-40z" stroke="#000" stroke-width="2" fill="#fff"/><path d="M532-121.33h59v20h-20.76" stroke="#000" stroke-width="2" fill="none"/><path d="M532-120.33h-1v-2h1zM569.5-96.7l-14.26-4.63 14.27-4.64z"/><path d="M570.5-95.32l-18.5-6 18.5-6.03zm-12.02-6l10.03 3.25v-6.52z"/><use xlink:href="#l" transform="matrix(1,0,0,1,599.0083333333332,-132.13333333333273) translate(0 14.4)"/><use xlink:href="#m" transform="matrix(1,0,0,1,599.0083333333332,-132.13333333333273) translate(255.59999999999997 14.4)"/><use xlink:href="#n" transform="matrix(1,0,0,1,599.0083333333332,-132.13333333333273) translate(317.54999999999995 14.4)"/><use xlink:href="#o" transform="matrix(1,0,0,1,599.0083333333332,-132.13333333333273) translate(337.54999999999995 14.4)"/><path d="M532 4.24h60v22.1h-21.76" stroke="#000" stroke-width="2" fill="none"/><path d="M532 5.24h-1v-2h1zM569.5 30.98l-14.26-4.63 14.27-4.64z"/><path d="M570.5 32.36l-18.5-6 18.5-6.02zm-12.02-6l10.03 3.25v-6.5z"/><use xlink:href="#p" transform="matrix(1,0,0,1,600.0083333333332,-5.5041636442280755) translate(0 14.4)"/><use xlink:href="#m" transform="matrix(1,0,0,1,600.0083333333332,-5.5041636442280755) translate(262.5999999999999 14.4)"/><use xlink:href="#n" transform="matrix(1,0,0,1,600.0083333333332,-5.5041636442280755) translate(324.5499999999999 14.4)"/><use xlink:href="#o" transform="matrix(1,0,0,1,600.0083333333332,-5.5041636442280755) translate(344.5499999999999 14.4)"/><path d="M1091-25.33h160v120h-160z" stroke="#000" stroke-width="2" fill="#fff"/><use xlink:href="#q" transform="matrix(1,0,0,1,1091.0083333333332,-25.33333333333337) translate(16.555 63.15)"/><path d="M532 176h599.77" stroke="#000" stroke-width="2" fill="none"/><path d="M532 177h-1v-2h1zM1146.77 176l-14.26 4.64v-9.28z"/><path d="M1150 176l-18.5 6v-12zm-16.5 3.26l10.04-3.26-10.03-3.26z"/><use xlink:href="#r" transform="matrix(1,0,0,1,755.1333333333332,150.3999999999999) translate(0 14.4)"/><use xlink:href="#s" transform="matrix(1,0,0,1,755.1333333333332,150.3999999999999) translate(37.95 14.4)"/><path d="M1411 84.67h160v120h-160z" stroke="#000" stroke-width="2" fill="#fff"/><use xlink:href="#t" transform="matrix(1,0,0,1,1411.0083333333332,84.66666666666663) translate(52.005 63.15)"/><path d="M1151 164.67h40v340h-40zM1471 224.67h40v100h-40z" stroke="#000" stroke-width="2" fill="#fff"/><path d="M1192 238.43h259.77" stroke="#000" stroke-width="2" fill="none"/><path d="M1192 239.43h-1v-2h1zM1466.77 238.43l-14.26 4.64v-9.27z"/><path d="M1470 238.43l-18.5 6.02v-12.03zm-16.5 3.26l10.04-3.27-10.03-3.26z"/><use xlink:href="#u" transform="matrix(1,0,0,1,1272.6083333333331,212.83385952242648) translate(0 14.4)"/><path d="M1470 309.54h-259.76" fill="none"/><path d="M1470 309.54h-9.6m-9.63 0h-19.25m-9.62 0h-19.24m-9.62 0h-19.24m-9.62 0h-19.24m-9.62 0h-19.25m-9.62 0h-19.24m-9.6 0h-19.25m-9.62 0h-19.24m-9.63 0h-9.63" stroke="#000" stroke-width="2" fill="none"/><path d="M1471 310.54h-1v-2h1zM1209.5 314.17l-14.26-4.63 14.27-4.64z"/><path d="M1210.5 315.55l-18.5-6 18.5-6.02zm-12.02-6l10.03 3.25v-6.52z"/><path d="M1192 357.33h60v20.05h-21.76" stroke="#000" stroke-width="2" fill="none"/><path d="M1192 358.33h-1v-2h1zM1229.5 382.02l-14.26-4.64 14.27-4.63z"/><path d="M1230.5 383.4l-18.5-6.02 18.5-6zm-12.02-6.02l10.03 3.26v-6.52z"/><use xlink:href="#v" transform="matrix(1,0,0,1,1260.0083333333334,344.55816722161603) translate(0 17.06666666666667)"/><use xlink:href="#w" transform="matrix(1,0,0,1,1260.0083333333334,344.55816722161603) translate(145.92592592592592 17.06666666666667)"/><use xlink:href="#x" transform="matrix(1,0,0,1,1260.0083333333334,344.55816722161603) translate(320.0537037037037 17.06666666666667)"/><use xlink:href="#y" transform="matrix(1,0,0,1,1260.0083333333334,344.55816722161603) translate(354.36481481481485 17.06666666666667)"/><use xlink:href="#z" transform="matrix(1,0,0,1,1260.0083333333334,344.55816722161603) translate(419.49074074074076 17.06666666666667)"/><path d="M1471 444.67h40v180h-40z" stroke="#000" stroke-width="2" fill="#fff"/><path d="M1192 462.67h259.77" stroke="#000" stroke-width="2" fill="none"/><path d="M1192 463.67h-1v-2h1zM1466.77 462.67l-14.26 4.63v-9.27z"/><path d="M1470 462.67l-18.5 6v-12.02zm-16.5 3.26l10.04-3.26-10.03-3.26z"/><use xlink:href="#A" transform="matrix(1,0,0,1,1306.0833333333333,437.0666666666665) translate(0 14.4)"/><path d="M1851 344.67h160v120h-160z" stroke="#000" stroke-width="2" fill="#fff"/><use xlink:href="#B" transform="matrix(1,0,0,1,1851.0083333333332,344.66666666666663) translate(11.630000000000004 63.15)"/><path d="M1512 496h379.77" stroke="#000" stroke-width="2" fill="none"/><path d="M1512 497h-1v-2h1zM1906.77 496l-14.26 4.64v-9.28z"/><path d="M1910 496l-18.5 6v-12zm-16.5 3.26l10.04-3.26-10.03-3.26z"/><use xlink:href="#r" transform="matrix(1,0,0,1,1617.7083333333333,470.39999999999975) translate(0 14.4)"/><use xlink:href="#C" transform="matrix(1,0,0,1,1617.7083333333333,470.39999999999975) translate(37.95 14.4)"/><path d="M1911 484.67h40v120h-40z" stroke="#000" stroke-width="2" fill="#fff"/><path d="M1952 510.67h60v29.8h-21.76" stroke="#000" stroke-width="2" fill="none"/><path d="M1952 511.67h-1v-2h1zM1989.5 545.1l-14.26-4.63 14.27-4.64z"/><path d="M1990.5 546.48l-18.5-6 18.5-6.02zm-12.02-6l10.03 3.25v-6.52z"/><use xlink:href="#D" transform="matrix(1,0,0,1,2020.0083333333332,504.7677573551089) translate(0 14.4)"/><path d="M1910 576h-379.76" fill="none"/><path d="M1910 576h-9.73m-9.74 0h-19.47m-9.74 0h-19.47m-9.74 0h-19.47m-9.73 0h-19.48m-9.74 0h-19.47m-9.73 0H1725m-9.74 0h-19.48m-9.74 0h-19.47m-9.74 0h-19.47m-9.74 0h-19.48m-9.73 0h-19.47m-9.74 0h-19.48m-9.74 0h-9.74" stroke="#000" stroke-width="2" fill="none"/><path d="M1911 577h-1v-2h1zM1529.5 580.64l-14.26-4.64 14.27-4.64z"/><path d="M1530.5 582l-18.5-6 18.5-6zm-12.02-6l10.03 3.26v-6.52z"/><path d="M321 748.32h84.5v20h66.26" stroke="#000" stroke-width="2" fill="none"/><path d="M321 749.32h-1v-2h1zM486.76 768.32l-14.26 4.63v-9.27z"/><path d="M490 768.32l-18.5 6V762.3zm-16.5 3.25l10.03-3.25-10.03-3.26z"/><use xlink:href="#E" transform="matrix(1,0,0,1,413.5,737.7681900247044) translate(0 14.4)"/><use xlink:href="#i" transform="matrix(1,0,0,1,413.5,737.7681900247044) translate(86.95 14.4)"/><use xlink:href="#e" transform="matrix(1,0,0,1,413.5,737.7681900247044) translate(141.9 14.4)"/><path d="M471 1219h80v80h-80z" fill="none"/><path d="M479 1227l64 64m0-64l-64 64" stroke="#000" stroke-width="8" fill="none"/><path d="M511-115.33h40v80h-40zM511 14.67h40v80h-40zM1171 364.67h40v80h-40zM1931 524.67h40v60h-40z" stroke="#000" stroke-width="2" fill="#fff"/><path d="M132 1969h-2v-10h2zm0-20.02h-2v-20h2zm0-30.02h-2v-20.02h2zm0-30.03h-2v-20.02h2zm0-30.02h-2v-20h2zm0-30.02h-2v-20.02h2zm0-30.02h-2v-20.02h2zm0-30.03h-2v-20.02h2zm0-30.03h-2v-20h2zm0-30.02h-2v-20.02h2zm0-30.03h-2v-20h2zm0-30.02h-2v-20.02h2zm0-30.03h-2v-20.02h2zm0-30.02h-2v-20.02h2zm0-30.03h-2v-20.02h2zm0-30.03h-2v-20h2zm0-30.02h-2v-20.02h2zm0-30.03h-2v-20h2zm0-30.02h-2v-20.02h2zm-.33-39.55h.33v9.52h-2V1401h-.33v-12.16h2zm0-20.17h-2v-20.02h2zm0-30.03h-2v-20h2zm0-30.02h-2v-20.02h2zm0-30.03h-2v-20h2zm0-30.02h-2v-20.02h2zm0-30.03h-2v-20h2zm0-30.02h-2v-20.02h2zm0-30.03h-2v-20.02h2zm0-30.02h-2v-20.02h2zm0-30.03h-2v-20.02h2zm0-30.03h-2v-20h2zm0-30.02h-2v-20.02h2zm0-30.03h-2v-20h2zm0-30.02h-2v-20.02h2zm0-30.03h-2v-20h2zm0-30.02h-2v-20.02h2zm0-30.03h-2V878.4h2zm0-30.02h-2v-20.02h2zm0-30.03h-2v-20.02h2zm0-30.03h-2v-20h2zm0-30.02h-2V758.3h2zm0-30.03h-2v-20.02h2zm0-30.03h-2v-20.02h2zm0-30.03h-2v-20h2zm0-30.02h-2V638.2h2zm0-30.03h-2v-20.03h2zm0-30.03h-2v-20.02h2zm0-30.03h-2v-20.02h2zm0-30.03h-2v-20h2zm0-30h-2v-20.03h2zm0-30.04h-2v-20h2zm0-30.02h-2v-20.02h2zm0-30.03h-2v-20h2zm0-30h-2v-20.03h2zm0-30.04h-2v-20.02h2zm0-30.02h-2v-20.02h2zm0-30.03h-2v-20h2zm0-30.02h-2v-20h2zm0-30.02h-2v-20.02h2zm0-30.03h-2v-20h2zm0-30.02h-2v-20h2zm0-30.02h-2v-20.02h2zm0-30.02h-2V97.74h2zm0-30.03h-2V67.7h2zm0-30.02h-2v-20h2zm0-30.02h-2V7.66h2zm0-30.03h-2v-20h2zm0-30.02h-2V-52.4h2zm0-30.03h-2v-20h2zm0-30.02h-2v-20.02h2zm0-46.18h-2v-3.87h2zm0-13.87h-2v-20.02h2zm0-30.03h-2v-20.02h2zm0-30.02h-2v-10h2zM131.67-222.53h-2v-3h2z"/><path/><use xlink:href="#F" transform="matrix(1,0,0,1,114.19166666666666,-138.5994123946764) translate(0 14.4)"/><path d="M111-185.33h40V1940h-40zM319.75 504.75c0 10.9-8.84 19.75-19.75 19.75-10.9 0-19.75-8.84-19.75-19.75 0-10.9 8.84-19.75 19.75-19.75 10.9 0 19.75 8.84 19.75 19.75z" stroke="#000" stroke-width="2" fill="#fff"/><path d="M260 485h80v158h-80z" fill="none"/><path d="M300 524.5v55.3l40 63.2m-40-63.2L260 643m0-98.75h80" stroke="#000" stroke-width="2" fill="none"/><use xlink:href="#G" transform="matrix(1,0,0,1,180,643) translate(79.025 14.6)"/><path d="M301 2140h-2v-10.05h2zm0-20.1h-2v-20.1h2zm0-30.17h-2v-20.1h2zm0-30.16h-2v-20.1h2zm0-30.16h-2v-20.1h2zm0-30.15h-2v-20.1h2zm0-30.16h-2v-20.12h2zm0-30.17h-2v-20.1h2zm0-30.16h-2v-20.1h2zm0-30.16h-2v-20.1h2zm0-30.15h-2v-20.1h2zm0-30.16h-2v-20.12h2zm0-30.17h-2v-20.1h2zm0-30.16h-2v-20.1h2zm0-30.17h-2v-20.1h2zm0-30.16h-2v-20.1h2zm0-30.16h-2v-20.1h2zm0-30.16h-2v-20.1h2zm0-30.16h-2v-20.1h2zm0-30.16h-2v-20.1h2zm0-30.16h-2v-20.1h2zm0-30.16h-2v-20.1h2zm0-30.16h-2v-20.1h2zm0-30.16h-2v-20.1h2zm0-30.16h-2v-20.1h2zm.3-39.06h-.3v8.9h-2v-10.9h.3v-8.9h2zm0-20.96h-2v-20.1h2zm0-30.16h-2v-20.1h2zm0-30.16h-2v-20.1h2zm0-30.16h-2v-20.1h2zm0-30.16h-2v-20.1h2zm0-30.16h-2v-20.1h2zm0-30.16h-2v-20.1h2zm0-30.16h-2v-20.1h2zm0-30.16h-2v-20.1h2zm0-30.16h-2v-20.1h2zm0-30.16h-2v-20.1h2zm0-30.16h-2v-20.1h2zm0-30.17h-2v-20.1h2zm0-30.16h-2V954h2zm0-30.17h-2v-20.1h2zm0-30.16h-2v-20.1h2zm0-30.16h-2v-20.1h2zm0-30.15h-2v-20.1h2zm0-30.16h-2v-20.12h2zm0-30.17h-2v-20.1h2zm0-30.16h-2v-20.1h2zm0-30.16h-2v-20.1h2zm0-46.15h-2v-4.1h2zm0-14.16h-2v-20.12h2zm0-30.17h-2v-10.06h2z"/><path d="M301.3 632.27h-2v-3h2z"/><path/><use xlink:href="#F" transform="matrix(1,0,0,1,283.8306306306307,686.6516128484427) translate(0 14.4)"/><path d="M280 680h40v1420h-40zM491 760h40v380h-40z" stroke="#000" stroke-width="2" fill="#fff"/><path d="M491 760h40v380h-40z" stroke="#000" stroke-width="2" fill="#fff"/><path d="M532 794h59v20h-20.76" stroke="#000" stroke-width="2" fill="none"/><path d="M532 795h-1v-2h1zM569.5 818.64L555.24 814l14.26-4.64z"/><path d="M570.5 820l-18.5-6 18.5-6zm-12.03-6l10.03 3.26v-6.52z"/><use xlink:href="#H" transform="matrix(1,0,0,1,598.9999999999999,783.1999999999999) translate(0 14.4)"/><use xlink:href="#m" transform="matrix(1,0,0,1,598.9999999999999,783.1999999999999) translate(266.65 14.4)"/><use xlink:href="#n" transform="matrix(1,0,0,1,598.9999999999999,783.1999999999999) translate(328.59999999999997 14.4)"/><use xlink:href="#o" transform="matrix(1,0,0,1,598.9999999999999,783.1999999999999) translate(348.59999999999997 14.4)"/><path d="M532 919.58h60v22.1h-21.76" stroke="#000" stroke-width="2" fill="none"/><path d="M532 920.58h-1v-2h1zM569.5 946.32l-14.26-4.64 14.26-4.63z"/><path d="M570.5 947.7l-18.5-6.02 18.5-6zm-12.03-6.02l10.03 3.26v-6.52z"/><use xlink:href="#I" transform="matrix(1,0,0,1,600,909.8291696891054) translate(0 14.4)"/><use xlink:href="#m" transform="matrix(1,0,0,1,600,909.8291696891054) translate(319.5999999999999 14.4)"/><use xlink:href="#n" transform="matrix(1,0,0,1,600,909.8291696891054) translate(381.5499999999999 14.4)"/><use xlink:href="#o" transform="matrix(1,0,0,1,600,909.8291696891054) translate(401.5499999999999 14.4)"/><path d="M532 1091.33h1628.76" stroke="#000" stroke-width="2" fill="none"/><path d="M532 1092.33h-1v-2h1zM2175.76 1091.33l-14.26 4.64v-9.27z"/><path d="M2179 1091.33l-18.5 6.02v-12.03zm-16.5 3.26l10.03-3.27-10.03-3.26z"/><use xlink:href="#r" transform="matrix(1,0,0,1,1269.625,1065.7333333333333) translate(0 14.4)"/><use xlink:href="#s" transform="matrix(1,0,0,1,1269.625,1065.7333333333333) translate(37.95 14.4)"/><path d="M511 800h40v80h-40zM511 930h40v80h-40zM2180 1088.33h40v340h-40z" stroke="#000" stroke-width="2" fill="#fff"/><path d="M2221 1162.1h282.5v.67h264.26" stroke="#000" stroke-width="2" fill="none"/><path d="M2221 1163.1h-1v-2h1zM2782.76 1162.77l-14.26 4.63v-9.27z"/><path d="M2786 1162.77l-18.5 6v-12zm-16.5 3.26l10.03-3.26-10.03-3.26z"/><use xlink:href="#u" transform="matrix(1,0,0,1,2445.1152897749166,1136.5019378131237) translate(0 14.4)"/><path d="M2221 1281h60v20.05h-21.76" stroke="#000" stroke-width="2" fill="none"/><path d="M2221 1282h-1v-2h1zM2258.5 1305.68l-14.26-4.63 14.26-4.64z"/><path d="M2259.5 1307.06l-18.5-6 18.5-6.02zm-12.03-6l10.03 3.25v-6.5z"/><use xlink:href="#v" transform="matrix(1,0,0,1,2289,1268.2248338882828) translate(0 17.06666666666667)"/><use xlink:href="#w" transform="matrix(1,0,0,1,2289,1268.2248338882828) translate(145.92592592592592 17.06666666666667)"/><use xlink:href="#x" transform="matrix(1,0,0,1,2289,1268.2248338882828) translate(320.0537037037037 17.06666666666667)"/><use xlink:href="#y" transform="matrix(1,0,0,1,2289,1268.2248338882828) translate(354.36481481481485 17.06666666666667)"/><use xlink:href="#z" transform="matrix(1,0,0,1,2289,1268.2248338882828) translate(419.49074074074076 17.06666666666667)"/><path d="M2200 1288.33h40v80h-40z" stroke="#000" stroke-width="2" fill="#fff"/><path d="M1931 1342.17v499" fill="none"/><path d="M1931 1342.17v9.78m0 9.8v19.55m0 9.8v19.56m0 9.78V1440m0 9.8v19.56m0 9.8v19.56m0 9.78v19.57m0 9.78v19.57m0 9.8v19.55m0 9.8v19.56m0 9.78v19.58m0 9.78v19.57m0 9.8v19.56m0 9.77v19.57m0 9.78v19.57m0 9.78v19.57m0 9.78v19.57m0 9.78v9.8" stroke="#000" stroke-width="2" fill="none"/><path d="M1932 1841.17h-2 2z"/><path d="M1911 1681.17h40v140h-40z" stroke="#000" stroke-width="2" fill="#fff"/><path d="M1910 1809.83h-699.76" fill="none"/><path d="M1910 1809.83h-10.14m-10.14 0h-20.3m-10.13 0H1839m-10.13 0h-20.3m-10.13 0h-20.28m-10.14 0h-20.28m-10.15 0h-20.3m-10.13 0h-20.28m-10.15 0h-20.3m-10.13 0h-20.28m-10.14 0h-20.3m-10.13 0h-20.28m-10.15 0h-20.3m-10.13 0h-20.28m-10.14 0h-20.28m-10.15 0h-20.28m-10.15 0h-20.28m-10.15 0h-20.28m-10.14 0h-20.28m-10.14 0h-20.3m-10.13 0h-20.28m-10.14 0h-20.3m-10.13 0h-20.28m-10.14 0h-10.14" stroke="#000" stroke-width="2" fill="none"/><path d="M1911 1810.83h-1v-2h1zM1209.5 1814.47l-14.26-4.64 14.26-4.63z"/><path d="M1210.5 1815.85l-18.5-6.02 18.5-6zm-12.03-6.02l10.03 3.26v-6.53z"/><path d="M1151 1581.17h40v140h-40z" stroke="#000" stroke-width="2" fill="#fff"/><path d="M1192 1609.83h60v26.98h-21.76" stroke="#000" stroke-width="2" fill="none"/><path d="M1192 1610.83h-1v-2h1zM1229.5 1641.44l-14.26-4.63 14.26-4.63z"/><path d="M1230.5 1642.82l-18.5-6 18.5-6.02zm-12.03-6l10.03 3.25v-6.52z"/><use xlink:href="#J" transform="matrix(1,0,0,1,1260,1600.5209515217248) translate(0 17.06666666666667)"/><use xlink:href="#K" transform="matrix(1,0,0,1,1260,1600.5209515217248) translate(331.02777777777777 17.06666666666667)"/><path d="M1192 1704.5h699.76" stroke="#000" stroke-width="2" fill="none"/><path d="M1192 1705.5h-1v-2h1zM1906.76 1704.5l-14.26 4.64v-9.28z"/><path d="M1910 1704.5l-18.5 6v-12zm-16.5 3.26l10.03-3.26-10.03-3.26z"/><use xlink:href="#L" transform="matrix(1,0,0,1,1598.3244516993382,1678.9) translate(0 14.4)"/><path d="M1952 1724.5h60v29.08h-21.76" stroke="#000" stroke-width="2" fill="none"/><path d="M1952 1725.5h-1v-2h1zM1989.5 1758.2l-14.26-4.62 14.26-4.64z"/><path d="M1990.5 1759.6l-18.5-6.02 18.5-6zm-12.03-6.02l10.03 3.26v-6.52z"/><use xlink:href="#M" transform="matrix(1,0,0,1,2019.9999999999998,1718.2390180573057) translate(0 14.4)"/><path d="M1151 1781.17h40v120h-40zM1931 1741.17h40v60h-40zM1171 1621.17h40v60h-40z" stroke="#000" stroke-width="2" fill="#fff"/><path d="M3247 1391v314.5h-7V2020" fill="none"/><path d="M3247 1391v10.1m0 10.1v20.18m0 10.1v20.2m0 10.08v20.2m0 10.1v20.18m0 10.1v20.18m0 10.1v20.2m0 10.08v20.2m0 10.1v20.18m0 10.1v20.18m0 10.1v20.2m-7 3.1v20.18m0 10.1v20.2m0 10.08v20.2m0 10.1v20.18m0 10.1v20.18m0 10.1v20.2m0 10.08v20.2m0 10.1v20.18m0 10.1v20.18m0 10.1v20.2m0 10.08v10.1" stroke="#000" stroke-width="2" fill="none"/><path d="M3248 1391h-2v-1h2z"/><path/><path d="M2807 1131v423.5h-4.5V1978" fill="none"/><path d="M2807 1131v10.14m0 10.13v20.28m0 10.13v20.28m0 10.13v20.27m0 10.13v20.28m0 10.14v20.27m0 10.13v20.27m0 10.14V1354m0 10.15v20.27m0 10.14v20.27m0 10.14v20.27m0 10.14v20.27m0 10.14v20.26m0 10.14v20.27m0 10.14v7.9h-4.5v7.9m0 10.13v20.27m0 10.14v20.27m0 10.15v20.27m0 10.14v20.27m0 10.14v20.27m0 10.14v20.27m0 10.14v20.26m0 10.14v20.27m0 10.14v20.28m0 10.14v20.28m0 10.13v20.28m0 10.14v20.28m0 10.13v20.28m0 10.13V1978" stroke="#000" stroke-width="2" fill="none"/><path d="M2808 1131h-2v-1h2z"/><path/><path d="M2727 1010h160v120h-160z" stroke="#000" stroke-width="2" fill="#fff"/><use xlink:href="#t" transform="matrix(1,0,0,1,2727,1010) translate(52.005 63.15)"/><path d="M2787 1150h40v100h-40z" stroke="#000" stroke-width="2" fill="#fff"/><path d="M2786 1234.87h-282.5v-.66h-264.26" fill="none"/><path d="M2786 1234.87h-10.14m-10.14 0h-20.27m-10.14 0h-20.26m-10.14 0h-20.28m-10.13 0h-20.3m-10.13 0h-20.27m-10.14 0h-20.27m-10.15 0h-20.28m-10.13 0h-20.28m-10.14 0h-18.92v-.66h-.7m-10.12 0h-20.28m-10.14 0H2442m-10.15 0h-20.27m-10.14 0h-20.28m-10.14 0h-20.27m-10.14 0h-20.26m-10.14 0h-20.28m-10.13 0h-20.3m-10.13 0h-10.13" stroke="#000" stroke-width="2" fill="none"/><path d="M2787 1235.87h-1v-2h1zM2238.5 1238.84l-14.26-4.63 14.26-4.63z"/><path d="M2239.5 1240.22l-18.5-6 18.5-6.03zm-12.03-6l10.03 3.24v-6.5z"/><path d="M2787 1370h40v180h-40z" stroke="#000" stroke-width="2" fill="#fff"/><path d="M2221 1387.33h282.5v.67h264.26" stroke="#000" stroke-width="2" fill="none"/><path d="M2221 1388.33h-1v-2h1zM2782.76 1388l-14.26 4.64v-9.28z"/><path d="M2786 1388l-18.5 6v-12zm-16.5 3.26l10.03-3.26-10.03-3.26z"/><use xlink:href="#A" transform="matrix(1,0,0,1,2478.6052477224107,1361.7389652072723) translate(0 14.4)"/><path d="M3167 1270h160v120h-160z" stroke="#000" stroke-width="2" fill="#fff"/><use xlink:href="#B" transform="matrix(1,0,0,1,3167,1270) translate(11.630000000000004 63.15)"/><path d="M2828 1421.33h379.76" stroke="#000" stroke-width="2" fill="none"/><path d="M2828 1422.33h-1v-2h1zM3222.76 1421.33l-14.26 4.64v-9.27z"/><path d="M3226 1421.33l-18.5 6.02v-12.03zm-16.5 3.26l10.03-3.27-10.03-3.26z"/><use xlink:href="#r" transform="matrix(1,0,0,1,2933.7,1395.7333333333333) translate(0 14.4)"/><use xlink:href="#C" transform="matrix(1,0,0,1,2933.7,1395.7333333333333) translate(37.95 14.4)"/><path d="M3227 1410h40v120h-40z" stroke="#000" stroke-width="2" fill="#fff"/><path d="M3268 1436h60v29.8h-21.76" stroke="#000" stroke-width="2" fill="none"/><path d="M3268 1437h-1v-2h1zM3305.5 1470.44l-14.26-4.64 14.26-4.63z"/><path d="M3306.5 1471.8l-18.5-6 18.5-6zm-12.03-6l10.03 3.26v-6.52z"/><use xlink:href="#D" transform="matrix(1,0,0,1,3336,1430.1010906884424) translate(0 14.4)"/><path d="M3226 1501.33h-379.76" fill="none"/><path d="M3226 1501.33h-9.74m-9.74 0h-19.47m-9.74 0h-19.46m-9.74 0h-19.48m-9.73 0h-19.5m-9.73 0h-19.47m-9.74 0H3041m-9.75 0h-19.48m-9.73 0h-19.48m-9.74 0h-19.47m-9.74 0h-19.46m-9.74 0h-19.48m-9.73 0h-19.5m-9.73 0h-9.73" stroke="#000" stroke-width="2" fill="none"/><path d="M3227 1502.33h-1v-2h1zM2845.5 1505.97l-14.26-4.64 14.26-4.63z"/><path d="M2846.5 1507.35l-18.5-6.02 18.5-6zm-12.03-6.02l10.03 3.26v-6.53z"/><path d="M3247 1450h40v60h-40z" stroke="#000" stroke-width="2" fill="#fff"/><path d="M3468 1299v50.5h-60v32.26" stroke="#c92d39" stroke-width="2" fill="none"/><path d="M3408 1396.76l-4.64-14.26h9.28z" stroke="#c92d39" stroke-width="2" fill="#c92d39"/><path d="M1952 1809.83h634v2.34h615.76" fill="none"/><path d="M1952 1809.83h9.94m9.93 0h19.88m9.94 0h19.86m9.94 0h19.87m9.94 0h19.88m9.94 0H2111m9.93 0h19.88m9.95 0h19.87m9.94 0h19.87m9.94 0h19.87m9.94 0h19.88m9.93 0h19.87m9.93 0h19.88m9.94 0h19.87m9.93 0h19.87m9.94 0h19.87m9.95 0h19.88m9.93 0h19.88m9.94 0h19.87m9.94 0h19.86m9.94 0h19.87m9.94 0h17.9v2m9.6.34h19.86m9.94 0h19.88m9.93 0h19.9m9.93 0h19.87m9.94 0h19.87m9.95 0h19.87m9.94 0h19.88m9.93 0h19.88m9.93 0h19.88m9.94 0h19.87m9.94 0h19.88m9.94 0h19.87m9.93 0h19.88m9.94 0h19.88m9.94 0h19.87m9.94 0h19.87m9.94 0h19.87m9.94 0h19.87m9.93 0h19.88m9.93 0h19.9m9.93 0h9.93" stroke="#000" stroke-width="2" fill="none"/><path d="M1952 1810.83h-1v-2h1z"/><path d="M3216.76 1812.17l-14.26 4.63v-9.27z" stroke="#000" stroke-width="2"/><path d="M2181 1899h40v160h-40zM2120 780h160v120h-160z" stroke="#000" stroke-width="2" fill="#fff"/><use xlink:href="#q" transform="matrix(1,0,0,1,2120,780) translate(16.555 63.15)"/><path d="M1212 1667.8h125v-12.13h106.76" fill="none"/><path d="M1212 1667.8h10.16m10.16 0h20.33m10.16 0h20.34m10.16 0h20.32m10.17 0h13.2v-7.1m5.14-5.03h20.32m10.17 0h20.32m10.16 0h20.34m10.16 0h10.16" stroke="#000" stroke-width="2" fill="none"/><path d="M1212 1668.8h-1v-2h1zM1458.76 1655.67l-14.26 4.63v-9.27z"/><path d="M1462 1655.67l-18.5 6v-12.02zm-16.5 3.26l10.03-3.26-10.03-3.26z"/><path d="M1462 1630.17h49v51h-49z" fill="none"/><path d="M1466.9 1635.27l39.2 40.8m0-40.8l-39.2 40.8" stroke="#000" stroke-width="8" fill="none"/><path d="M2222 1955.13h60v29.5h-21.76" stroke="#000" stroke-width="2" fill="none"/><path d="M2222 1956.13h-1v-2h1zM2259.5 1989.28l-14.26-4.64 14.26-4.63z"/><path d="M2260.5 1990.65l-18.5-6 18.5-6.02zm-12.03-6l10.03 3.25v-6.52z"/><use xlink:href="#J" transform="matrix(1,0,0,1,2221.563669878017,1929.9551636867322) translate(0 17.06666666666667)"/><use xlink:href="#K" transform="matrix(1,0,0,1,2221.563669878017,1929.9551636867322) translate(331.02777777777777 17.06666666666667)"/><path d="M2201 1969h40v60h-40z" stroke="#000" stroke-width="2" fill="#fff"/><path d="M2242 2004.97h516.5v-1.47h20.22" fill="none"/><path d="M2242 2004.97h9.97m9.96 0h19.94m9.96 0h19.93m9.97 0h19.93m9.97 0h19.93m9.97 0h19.93m9.97 0h19.93m9.97 0h19.93m9.97 0h19.93m9.97 0h19.93m9.96 0h19.94m9.96 0h19.94m9.96 0h19.94m9.96 0h19.93m9.97 0h19.93m9.97 0h19.93m9.97 0h19.93m9.97 0h18.18v-1.47h.28m9.97 0h9.97" stroke="#000" stroke-width="2" fill="none"/><path d="M2242 2005.97h-1v-2h1z"/><path d="M2793.72 2003.5l-14.27 4.64v-9.28z" stroke="#000" stroke-width="2"/><path d="M2778 1978h49v51h-49z" fill="none"/><path d="M2782.9 1983.1l39.2 40.8m0-40.8l-39.2 40.8" stroke="#000" stroke-width="8" fill="none"/><path d="M3227 1801h40v120h-40z" stroke="#000" stroke-width="2" fill="#fff"/><path d="M3268 1818.8h60v29.33h-21.76" stroke="#000" stroke-width="2" fill="none"/><path d="M3268 1819.8h-1v-2h1zM3305.5 1852.77l-14.26-4.64 14.26-4.63z"/><path d="M3306.5 1854.15l-18.5-6.02 18.5-6zm-12.03-6.02l10.03 3.26v-6.53z"/><g><use xlink:href="#M" transform="matrix(1,0,0,1,3336,1831.7755901038825) translate(0 14.4)"/></g><path d="M3247 1831h40v60h-40z" stroke="#000" stroke-width="2" fill="#fff"/><path d="M3226 1902.8h-502v7h-483.76" fill="none"/><path d="M3226 1902.8h-10.03m-10.03 0h-20.05m-10.04 0h-20.06m-10.02 0h-20.06m-10.03 0h-20.06m-10.03 0h-20.05m-10.02 0h-20.06m-10.03 0h-20.05m-10.04 0h-20.06m-10.03 0h-20.05m-10.03 0h-20.07m-10.02 0h-20.05m-10.03 0h-20.05m-10.03 0h-20.06m-10.02 0h-20.06m-10.03 0h-20.05m-10.03 0h-20.07m-10.03 0h-.6v7h-12.45m-10.03 0h-20.06m-10.02 0h-20.06m-10.03 0h-20.05m-10.03 0h-20.06m-10 0h-20.07m-10.03 0h-20.05m-10.03 0h-20.06m-10.03 0h-20.05m-10.03 0h-20.06m-10.03 0h-20.06m-10.02 0h-20.05m-10.03 0h-20.06m-10.02 0h-20.06m-10.03 0h-20.05m-10.03 0h-20.06m-10.04 0h-10.02" stroke="#000" stroke-width="2" fill="none"/><path d="M3227 1903.8h-1v-2h1zM2239.5 1914.44l-14.26-4.64 14.26-4.64z"/><path d="M2240.5 1915.8l-18.5-6 18.5-6zm-12.03-6l10.03 3.26v-6.52z"/><path d="M2180 2048.62H339.24" fill="none"/><path d="M2180 2048.62h-10.06m-10.06 0h-20.12m-10.05 0h-20.1m-10.07 0h-20.12m-10.05 0h-20.1m-10.07 0h-20.12m-10.06 0h-20.12m-10.06 0h-20.1m-10.07 0h-20.12m-10.06 0h-20.12m-10.06 0h-20.12m-10.06 0H1838m-10.06 0h-20.12m-10.06 0h-20.1m-10.07 0h-20.13m-10.06 0h-20.1m-10.06 0h-20.12m-10.06 0h-20.12m-10.06 0h-20.12m-10.05 0h-20.1m-10.07 0h-20.12m-10.05 0h-20.1m-10.07 0h-20.12m-10.06 0h-20.12m-10.06 0h-20.1m-10.07 0h-20.12m-10.06 0h-20.12m-10.06 0h-20.12m-10.06 0H1325m-10.06 0h-20.12m-10.05 0h-20.12m-10.06 0h-20.13m-10.06 0h-20.1m-10.06 0h-20.12m-10.06 0h-20.12m-10.06 0h-20.1m-10.07 0h-20.1m-10.07 0h-20.12m-10.05 0h-20.1m-10.07 0h-20.12m-10.06 0h-20.12m-10.06 0h-20.1m-10.07 0h-20.12m-10.06 0h-20.12m-10.06 0h-20.12m-10.06 0H812m-10.06 0h-20.12m-10.05 0h-20.12m-10.06 0h-20.13m-10.06 0h-20.1m-10.06 0h-20.12m-10.06 0h-20.12m-10.06 0h-20.1m-10.07 0h-20.1m-10.07 0H540.4m-10.05 0h-20.1m-10.07 0h-20.12m-10.06 0h-20.12m-10.06 0h-20.1m-10.07 0h-20.12m-10.06 0h-20.12m-10.06 0h-10.06" stroke="#000" stroke-width="2" fill="none"/><path d="M2181 2049.62h-1v-2h1zM338.5 2053.26l-14.26-4.64 14.26-4.63z"/><path d="M339.5 2054.64l-18.5-6.02 18.5-6zm-12.03-6.02l10.03 3.26v-6.5z"/><g><use xlink:href="#a" transform="matrix(1,0,0,1,1173.6,2023.024407615589) translate(0 14.4)"/><use xlink:href="#b" transform="matrix(1,0,0,1,1173.6,2023.024407615589) translate(88.80000000000001 14.4)"/></g><path d="M91 1969h80v80H91z" fill="none"/><path d="M99 1977l64 64m0-64l-64 64" stroke="#000" stroke-width="8" fill="none"/><path d="M260 2140h80v80h-80z" fill="none"/><path d="M268 2148l64 64m0-64l-64 64" stroke="#000" stroke-width="8" fill="none"/><path d="M1131 1932.17h80v80h-80z" fill="none"/><path d="M1139 1940.17l64 64m0-64l-64 64" stroke="#000" stroke-width="8" fill="none"/><path d="M1891 1841.17h80v80h-80z" fill="none"/><path d="M1899 1849.17l64 64m0-64l-64 64" stroke="#000" stroke-width="8" fill="none"/><path d="M2160 2320h80v80h-80z" fill="none"/><path d="M2168 2328l64 64m0-64l-64 64" stroke="#000" stroke-width="8" fill="none"/><path d="M471 1219h80v80h-80z" fill="none"/><path d="M479 1227l64 64m0-64l-64 64" stroke="#000" stroke-width="8" fill="none"/><path d="M3200 2020h80v80h-80z" fill="none"/><path d="M3208 2028l64 64m0-64l-64 64" stroke="#000" stroke-width="8" fill="none"/><defs><path d="M30-248c87 1 191-15 191 75 0 78-77 80-158 76V0H30v-248zm33 125c57 0 124 11 124-50 0-59-68-47-124-48v98" id="N"/><path d="M114-163C36-179 61-72 57 0H25l-1-190h30c1 12-1 29 2 39 6-27 23-49 58-41v29" id="O"/><path d="M100-194c62-1 85 37 85 99 1 63-27 99-86 99S16-35 15-95c0-66 28-99 85-99zM99-20c44 1 53-31 53-75 0-43-8-75-51-75s-53 32-53 75 10 74 51 75" id="P"/><path d="M177-190C167-65 218 103 67 71c-23-6-38-20-44-43l32-5c15 47 100 32 89-28v-30C133-14 115 1 83 1 29 1 15-40 15-95c0-56 16-97 71-98 29-1 48 16 59 35 1-10 0-23 2-32h30zM94-22c36 0 50-32 50-73 0-42-14-75-50-75-39 0-46 34-46 75s6 73 46 73" id="Q"/><path d="M141-36C126-15 110 5 73 4 37 3 15-17 15-53c-1-64 63-63 125-63 3-35-9-54-41-54-24 1-41 7-42 31l-33-3c5-37 33-52 76-52 45 0 72 20 72 64v82c-1 20 7 32 28 27v20c-31 9-61-2-59-35zM48-53c0 20 12 33 32 33 41-3 63-29 60-74-43 2-92-5-92 41" id="R"/><path d="M210-169c-67 3-38 105-44 169h-31v-121c0-29-5-50-35-48C34-165 62-65 56 0H25l-1-190h30c1 10-1 24 2 32 10-44 99-50 107 0 11-21 27-35 58-36 85-2 47 119 55 194h-31v-121c0-29-5-49-35-48" id="S"/><g id="a"><use transform="matrix(0.05,0,0,0.05,0,0)" xlink:href="#N"/><use transform="matrix(0.05,0,0,0.05,12,0)" xlink:href="#O"/><use transform="matrix(0.05,0,0,0.05,17.95,0)" xlink:href="#P"/><use transform="matrix(0.05,0,0,0.05,27.950000000000003,0)" xlink:href="#Q"/><use transform="matrix(0.05,0,0,0.05,37.95,0)" xlink:href="#O"/><use transform="matrix(0.05,0,0,0.05,43.900000000000006,0)" xlink:href="#R"/><use transform="matrix(0.05,0,0,0.05,53.900000000000006,0)" xlink:href="#S"/><use transform="matrix(0.05,0,0,0.05,68.85000000000001,0)" xlink:href="#S"/></g><path d="M115-194c53 0 69 39 70 98 0 66-23 100-70 100C84 3 66-7 56-30L54 0H23l1-261h32v101c10-23 28-34 59-34zm-8 174c40 0 45-34 45-75 0-40-5-75-45-74-42 0-51 32-51 76 0 43 10 73 51 73" id="T"/><path d="M100-194c63 0 86 42 84 106H49c0 40 14 67 53 68 26 1 43-12 49-29l28 8c-11 28-37 45-77 45C44 4 14-33 15-96c1-61 26-98 85-98zm52 81c6-60-76-77-97-28-3 7-6 17-6 28h103" id="U"/><path d="M117-194c89-4 53 116 60 194h-32v-121c0-31-8-49-39-48C34-167 62-67 57 0H25l-1-190h30c1 10-1 24 2 32 11-22 29-35 61-36" id="V"/><path d="M85-194c31 0 48 13 60 33l-1-100h32l1 261h-30c-2-10 0-23-3-31C134-8 116 4 85 4 32 4 16-35 15-94c0-66 23-100 70-100zm9 24c-40 0-46 34-46 75 0 40 6 74 45 74 42 0 51-32 51-76 0-42-9-74-50-73" id="W"/><path d="M59-47c-2 24 18 29 38 22v24C64 9 27 4 27-40v-127H5v-23h24l9-43h21v43h35v23H59v120" id="X"/><g id="b"><use transform="matrix(0.05,0,0,0.05,0,0)" xlink:href="#T"/><use transform="matrix(0.05,0,0,0.05,10,0)" xlink:href="#U"/><use transform="matrix(0.05,0,0,0.05,20,0)" xlink:href="#U"/><use transform="matrix(0.05,0,0,0.05,30,0)" xlink:href="#V"/><use transform="matrix(0.05,0,0,0.05,40,0)" xlink:href="#W"/><use transform="matrix(0.05,0,0,0.05,50,0)" xlink:href="#U"/><use transform="matrix(0.05,0,0,0.05,60,0)" xlink:href="#X"/></g><path d="M160-131c35 5 61 23 61 61C221 17 115-2 30 0v-248c76 3 177-17 177 60 0 33-19 50-47 57zm-97-11c50-1 110 9 110-42 0-47-63-36-110-37v79zm0 115c55-2 124 14 124-45 0-56-70-42-124-44v89" id="Y"/><path d="M84 4C-5 8 30-112 23-190h32v120c0 31 7 50 39 49 72-2 45-101 50-169h31l1 190h-30c-1-10 1-25-2-33-11 22-28 36-60 37" id="Z"/><path d="M9 0v-24l116-142H16v-24h144v24L44-24h123V0H9" id="aa"/><path d="M27 0v-27h64v-190l-56 39v-29l58-41h29v221h61V0H27" id="ab"/><g id="c"><use transform="matrix(0.05,0,0,0.05,0,0)" xlink:href="#Y"/><use transform="matrix(0.05,0,0,0.05,12,0)" xlink:href="#U"/><use transform="matrix(0.05,0,0,0.05,22,0)" xlink:href="#V"/><use transform="matrix(0.05,0,0,0.05,32,0)" xlink:href="#Z"/><use transform="matrix(0.05,0,0,0.05,42,0)" xlink:href="#X"/><use transform="matrix(0.05,0,0,0.05,47,0)" xlink:href="#aa"/><use transform="matrix(0.05,0,0,0.05,56,0)" xlink:href="#U"/><use transform="matrix(0.05,0,0,0.05,66,0)" xlink:href="#O"/><use transform="matrix(0.05,0,0,0.05,71.95,0)" xlink:href="#ab"/></g><g id="d"><use transform="matrix(0.05,0,0,0.05,0,0)" xlink:href="#T"/><use transform="matrix(0.05,0,0,0.05,10,0)" xlink:href="#U"/><use transform="matrix(0.05,0,0,0.05,20,0)" xlink:href="#U"/><use transform="matrix(0.05,0,0,0.05,30,0)" xlink:href="#V"/><use transform="matrix(0.05,0,0,0.05,40,0)" xlink:href="#W"/><use transform="matrix(0.05,0,0,0.05,50,0)" xlink:href="#U"/><use transform="matrix(0.05,0,0,0.05,60,0)" xlink:href="#X"/></g><g id="e"><use transform="matrix(0.05,0,0,0.05,0,0)" xlink:href="#N"/><use transform="matrix(0.05,0,0,0.05,12,0)" xlink:href="#O"/><use transform="matrix(0.05,0,0,0.05,17.95,0)" xlink:href="#P"/><use transform="matrix(0.05,0,0,0.05,27.950000000000003,0)" xlink:href="#Q"/><use transform="matrix(0.05,0,0,0.05,37.95,0)" xlink:href="#O"/><use transform="matrix(0.05,0,0,0.05,43.900000000000006,0)" xlink:href="#R"/><use transform="matrix(0.05,0,0,0.05,53.900000000000006,0)" xlink:href="#S"/><use transform="matrix(0.05,0,0,0.05,68.85000000000001,0)" xlink:href="#S"/></g><path d="M33-154v-36h34v36H33zM33 0v-36h34V0H33" id="ac"/><path d="M143 4C61 4 22-44 18-125c-5-107 100-154 193-111 17 8 29 25 37 43l-32 9c-13-25-37-40-76-40-61 0-88 39-88 99 0 61 29 100 91 101 35 0 62-11 79-27v-45h-74v-28h105v86C228-13 192 4 143 4" id="ad"/><path d="M115-194c55 1 70 41 70 98S169 2 115 4C84 4 66-9 55-30l1 105H24l-1-265h31l2 30c10-21 28-34 59-34zm-8 174c40 0 45-34 45-75s-6-73-45-74c-42 0-51 32-51 76 0 43 10 73 51 73" id="ae"/><path d="M106-169C34-169 62-67 57 0H25v-261h32l-1 103c12-21 28-36 61-36 89 0 53 116 60 194h-32v-121c2-32-8-49-39-48" id="af"/><path d="M24-231v-30h32v30H24zM24 0v-190h32V0H24" id="ag"/><path d="M96-169c-40 0-48 33-48 73s9 75 48 75c24 0 41-14 43-38l32 2c-6 37-31 61-74 61-59 0-76-41-82-99-10-93 101-131 147-64 4 7 5 14 7 22l-32 3c-4-21-16-35-41-35" id="ah"/><path d="M24 0v-261h32V0H24" id="ai"/><path d="M232-93c-1 65-40 97-104 97C67 4 28-28 28-90v-158h33c8 89-33 224 67 224 102 0 64-133 71-224h33v155" id="aj"/><path d="M135-143c-3-34-86-38-87 0 15 53 115 12 119 90S17 21 10-45l28-5c4 36 97 45 98 0-10-56-113-15-118-90-4-57 82-63 122-42 12 7 21 19 24 35" id="ak"/><path d="M33 0v-248h34V0H33" id="al"/><path d="M101-234c-31-9-42 10-38 44h38v23H63V0H32v-167H5v-23h27c-7-52 17-82 69-68v24" id="am"/><g id="f"><use transform="matrix(0.05,0,0,0.05,0,0)" xlink:href="#ac"/><use transform="matrix(0.05,0,0,0.05,5,0)" xlink:href="#ad"/><use transform="matrix(0.05,0,0,0.05,19,0)" xlink:href="#O"/><use transform="matrix(0.05,0,0,0.05,24.95,0)" xlink:href="#R"/><use transform="matrix(0.05,0,0,0.05,34.95,0)" xlink:href="#ae"/><use transform="matrix(0.05,0,0,0.05,44.95,0)" xlink:href="#af"/><use transform="matrix(0.05,0,0,0.05,54.95,0)" xlink:href="#ag"/><use transform="matrix(0.05,0,0,0.05,58.900000000000006,0)" xlink:href="#ah"/><use transform="matrix(0.05,0,0,0.05,67.9,0)" xlink:href="#R"/><use transform="matrix(0.05,0,0,0.05,77.9,0)" xlink:href="#ai"/><use transform="matrix(0.05,0,0,0.05,81.85000000000001,0)" xlink:href="#aj"/><use transform="matrix(0.05,0,0,0.05,94.80000000000001,0)" xlink:href="#ak"/><use transform="matrix(0.05,0,0,0.05,103.80000000000001,0)" xlink:href="#U"/><use transform="matrix(0.05,0,0,0.05,113.80000000000001,0)" xlink:href="#O"/><use transform="matrix(0.05,0,0,0.05,119.75,0)" xlink:href="#al"/><use transform="matrix(0.05,0,0,0.05,124.75,0)" xlink:href="#V"/><use transform="matrix(0.05,0,0,0.05,134.75,0)" xlink:href="#X"/><use transform="matrix(0.05,0,0,0.05,139.75,0)" xlink:href="#U"/><use transform="matrix(0.05,0,0,0.05,149.75,0)" xlink:href="#O"/><use transform="matrix(0.05,0,0,0.05,155.7,0)" xlink:href="#am"/><use transform="matrix(0.05,0,0,0.05,160.7,0)" xlink:href="#R"/><use transform="matrix(0.05,0,0,0.05,170.7,0)" xlink:href="#ah"/><use transform="matrix(0.05,0,0,0.05,179.7,0)" xlink:href="#U"/></g><g id="g"><use transform="matrix(0.05,0,0,0.05,0,0)" xlink:href="#Y"/><use transform="matrix(0.05,0,0,0.05,12,0)" xlink:href="#U"/><use transform="matrix(0.05,0,0,0.05,22,0)" xlink:href="#V"/><use transform="matrix(0.05,0,0,0.05,32,0)" xlink:href="#Z"/><use transform="matrix(0.05,0,0,0.05,42,0)" xlink:href="#X"/><use transform="matrix(0.05,0,0,0.05,47,0)" xlink:href="#aa"/><use transform="matrix(0.05,0,0,0.05,56,0)" xlink:href="#U"/><use transform="matrix(0.05,0,0,0.05,66,0)" xlink:href="#O"/></g><g id="h"><use transform="matrix(0.05,0,0,0.05,0,0)" xlink:href="#Y"/><use transform="matrix(0.05,0,0,0.05,12,0)" xlink:href="#U"/><use transform="matrix(0.05,0,0,0.05,22,0)" xlink:href="#V"/><use transform="matrix(0.05,0,0,0.05,32,0)" xlink:href="#Z"/><use transform="matrix(0.05,0,0,0.05,42,0)" xlink:href="#X"/><use transform="matrix(0.05,0,0,0.05,47,0)" xlink:href="#aa"/><use transform="matrix(0.05,0,0,0.05,56,0)" xlink:href="#U"/><use transform="matrix(0.05,0,0,0.05,66,0)" xlink:href="#O"/></g><g id="i"><use transform="matrix(0.05,0,0,0.05,0,0)" xlink:href="#ak"/><use transform="matrix(0.05,0,0,0.05,9,0)" xlink:href="#X"/><use transform="matrix(0.05,0,0,0.05,14,0)" xlink:href="#R"/><use transform="matrix(0.05,0,0,0.05,24,0)" xlink:href="#O"/><use transform="matrix(0.05,0,0,0.05,29.950000000000003,0)" xlink:href="#X"/><use transform="matrix(0.05,0,0,0.05,34.95,0)" xlink:href="#U"/><use transform="matrix(0.05,0,0,0.05,44.95,0)" xlink:href="#X"/></g><g id="j"><use transform="matrix(0.05,0,0,0.05,0,0)" xlink:href="#Q"/><use transform="matrix(0.05,0,0,0.05,10,0)" xlink:href="#O"/><use transform="matrix(0.05,0,0,0.05,15.949999999999998,0)" xlink:href="#R"/><use transform="matrix(0.05,0,0,0.05,25.950000000000003,0)" xlink:href="#ae"/><use transform="matrix(0.05,0,0,0.05,35.95,0)" xlink:href="#af"/><use transform="matrix(0.05,0,0,0.05,45.95,0)" xlink:href="#ag"/><use transform="matrix(0.05,0,0,0.05,49.900000000000006,0)" xlink:href="#ak"/><use transform="matrix(0.05,0,0,0.05,58.900000000000006,0)" xlink:href="#ah"/><use transform="matrix(0.05,0,0,0.05,67.9,0)" xlink:href="#af"/><use transform="matrix(0.05,0,0,0.05,77.9,0)" xlink:href="#U"/></g><path d="M140-251c81 0 123 46 123 126C263-46 219 4 140 4 59 4 17-45 17-125s42-126 123-126zm0 227c63 0 89-41 89-101s-29-99-89-99c-61 0-89 39-89 99S79-25 140-24" id="an"/><path d="M141-36C126-15 110 5 73 4 37 3 15-17 15-53c-1-64 63-63 125-63 3-35-9-54-41-54-24 1-41 7-42 31l-33-3c5-37 33-52 76-52 45 0 72 20 72 64v82c-1 20 7 32 28 27v20c-31 9-61-2-59-35zM48-53c0 20 12 33 32 33 41-3 63-29 60-74-43 2-92-5-92 41zm70-161v-33h29v33h-29zm-69 0v-33h29v33H49" id="ao"/><g id="k"><use transform="matrix(0.05,0,0,0.05,0,0)" xlink:href="#an"/><use transform="matrix(0.05,0,0,0.05,14,0)" xlink:href="#T"/><use transform="matrix(0.05,0,0,0.05,24,0)" xlink:href="#U"/><use transform="matrix(0.05,0,0,0.05,34,0)" xlink:href="#O"/><use transform="matrix(0.05,0,0,0.05,39.95,0)" xlink:href="#am"/><use transform="matrix(0.05,0,0,0.05,44.95,0)" xlink:href="#ai"/><use transform="matrix(0.05,0,0,0.05,48.900000000000006,0)" xlink:href="#ao"/><use transform="matrix(0.05,0,0,0.05,58.900000000000006,0)" xlink:href="#ah"/><use transform="matrix(0.05,0,0,0.05,67.9,0)" xlink:href="#af"/><use transform="matrix(0.05,0,0,0.05,77.9,0)" xlink:href="#U"/></g><path d="M233-177c-1 41-23 64-60 70L243 0h-38l-65-103H63V0H30v-248c88 3 205-21 203 71zM63-129c60-2 137 13 137-47 0-61-80-42-137-45v92" id="ap"/><path d="M197 0v-115H63V0H30v-248h33v105h134v-105h34V0h-34" id="aq"/><path d="M-5 72V49h209v23H-5" id="ar"/><path d="M212-179c-10-28-35-45-73-45-59 0-87 40-87 99 0 60 29 101 89 101 43 0 62-24 78-52l27 14C228-24 195 4 139 4 59 4 22-46 18-125c-6-104 99-153 187-111 19 9 31 26 39 46" id="as"/><path d="M143 0L79-87 56-68V0H24v-261h32v163l83-92h37l-77 82L181 0h-38" id="at"/><path d="M87 75C49 33 22-17 22-94c0-76 28-126 65-167h31c-38 41-64 92-64 168S80 34 118 75H87" id="au"/><g id="l"><use transform="matrix(0.05,0,0,0.05,0,0)" xlink:href="#ap"/><use transform="matrix(0.05,0,0,0.05,12.950000000000001,0)" xlink:href="#R"/><use transform="matrix(0.05,0,0,0.05,22.950000000000003,0)" xlink:href="#W"/><use transform="matrix(0.05,0,0,0.05,32.95,0)" xlink:href="#ag"/><use transform="matrix(0.05,0,0,0.05,36.900000000000006,0)" xlink:href="#P"/><use transform="matrix(0.05,0,0,0.05,46.900000000000006,0)" xlink:href="#Y"/><use transform="matrix(0.05,0,0,0.05,58.900000000000006,0)" xlink:href="#Z"/><use transform="matrix(0.05,0,0,0.05,68.9,0)" xlink:href="#X"/><use transform="matrix(0.05,0,0,0.05,73.9,0)" xlink:href="#X"/><use transform="matrix(0.05,0,0,0.05,78.9,0)" xlink:href="#P"/><use transform="matrix(0.05,0,0,0.05,88.9,0)" xlink:href="#V"/><use transform="matrix(0.05,0,0,0.05,98.9,0)" xlink:href="#aq"/><use transform="matrix(0.05,0,0,0.05,111.85000000000001,0)" xlink:href="#P"/><use transform="matrix(0.05,0,0,0.05,121.85000000000001,0)" xlink:href="#ak"/><use transform="matrix(0.05,0,0,0.05,130.85000000000002,0)" xlink:href="#X"/><use transform="matrix(0.05,0,0,0.05,135.85000000000002,0)" xlink:href="#ar"/><use transform="matrix(0.05,0,0,0.05,145.85000000000002,0)" xlink:href="#as"/><use transform="matrix(0.05,0,0,0.05,158.8,0)" xlink:href="#ai"/><use transform="matrix(0.05,0,0,0.05,162.75,0)" xlink:href="#ag"/><use transform="matrix(0.05,0,0,0.05,166.7,0)" xlink:href="#ah"/><use transform="matrix(0.05,0,0,0.05,175.7,0)" xlink:href="#at"/><use transform="matrix(0.05,0,0,0.05,184.7,0)" xlink:href="#au"/><use transform="matrix(0.05,0,0,0.05,190.64999999999998,0)" xlink:href="#ak"/><use transform="matrix(0.05,0,0,0.05,199.64999999999998,0)" xlink:href="#U"/><use transform="matrix(0.05,0,0,0.05,209.64999999999998,0)" xlink:href="#V"/><use transform="matrix(0.05,0,0,0.05,219.64999999999998,0)" xlink:href="#W"/><use transform="matrix(0.05,0,0,0.05,229.64999999999998,0)" xlink:href="#U"/><use transform="matrix(0.05,0,0,0.05,239.64999999999998,0)" xlink:href="#O"/><use transform="matrix(0.05,0,0,0.05,245.59999999999997,0)" xlink:href="#ac"/></g><path d="M24-231v-30h32v30H24zM-9 49c24 4 33-6 33-30v-209h32V24c2 40-23 58-65 49V49" id="av"/><path d="M68-38c1 34 0 65-14 84H32c9-13 17-26 17-46H33v-38h35" id="aw"/><g id="m"><use transform="matrix(0.05,0,0,0.05,0,0)" xlink:href="#an"/><use transform="matrix(0.05,0,0,0.05,14,0)" xlink:href="#T"/><use transform="matrix(0.05,0,0,0.05,24,0)" xlink:href="#av"/><use transform="matrix(0.05,0,0,0.05,27.950000000000003,0)" xlink:href="#U"/><use transform="matrix(0.05,0,0,0.05,37.95,0)" xlink:href="#ah"/><use transform="matrix(0.05,0,0,0.05,46.95,0)" xlink:href="#X"/><use transform="matrix(0.05,0,0,0.05,51.95,0)" xlink:href="#aw"/></g><g id="n"><use transform="matrix(0.05,0,0,0.05,0,0)" xlink:href="#U"/><use transform="matrix(0.05,0,0,0.05,10,0)" xlink:href="#ac"/></g><path d="M30 0v-248h187v28H63v79h144v27H63v87h162V0H30" id="ax"/><path d="M108 0H70L1-190h34L89-25l56-165h34" id="ay"/><path d="M205 0l-28-72H64L36 0H1l101-248h38L239 0h-34zm-38-99l-47-123c-12 45-31 82-46 123h93" id="az"/><path d="M33-261c38 41 65 92 65 168S71 34 33 75H2C39 34 66-17 66-93S39-220 2-261h31" id="aA"/><g id="o"><use transform="matrix(0.05,0,0,0.05,0,0)" xlink:href="#ax"/><use transform="matrix(0.05,0,0,0.05,12,0)" xlink:href="#ay"/><use transform="matrix(0.05,0,0,0.05,21,0)" xlink:href="#U"/><use transform="matrix(0.05,0,0,0.05,31,0)" xlink:href="#V"/><use transform="matrix(0.05,0,0,0.05,41,0)" xlink:href="#X"/><use transform="matrix(0.05,0,0,0.05,46,0)" xlink:href="#az"/><use transform="matrix(0.05,0,0,0.05,58,0)" xlink:href="#O"/><use transform="matrix(0.05,0,0,0.05,63.95,0)" xlink:href="#Q"/><use transform="matrix(0.05,0,0,0.05,73.95,0)" xlink:href="#ak"/><use transform="matrix(0.05,0,0,0.05,82.95,0)" xlink:href="#aA"/></g><g id="p"><use transform="matrix(0.05,0,0,0.05,0,0)" xlink:href="#Y"/><use transform="matrix(0.05,0,0,0.05,12,0)" xlink:href="#Z"/><use transform="matrix(0.05,0,0,0.05,22,0)" xlink:href="#X"/><use transform="matrix(0.05,0,0,0.05,27,0)" xlink:href="#X"/><use transform="matrix(0.05,0,0,0.05,32,0)" xlink:href="#P"/><use transform="matrix(0.05,0,0,0.05,42,0)" xlink:href="#V"/><use transform="matrix(0.05,0,0,0.05,52,0)" xlink:href="#as"/><use transform="matrix(0.05,0,0,0.05,64.95,0)" xlink:href="#af"/><use transform="matrix(0.05,0,0,0.05,74.95,0)" xlink:href="#P"/><use transform="matrix(0.05,0,0,0.05,84.95,0)" xlink:href="#P"/><use transform="matrix(0.05,0,0,0.05,94.95,0)" xlink:href="#ak"/><use transform="matrix(0.05,0,0,0.05,103.95,0)" xlink:href="#U"/><use transform="matrix(0.05,0,0,0.05,113.95,0)" xlink:href="#as"/><use transform="matrix(0.05,0,0,0.05,126.9,0)" xlink:href="#R"/><use transform="matrix(0.05,0,0,0.05,136.9,0)" xlink:href="#O"/><use transform="matrix(0.05,0,0,0.05,142.85,0)" xlink:href="#ar"/><use transform="matrix(0.05,0,0,0.05,152.85,0)" xlink:href="#as"/><use transform="matrix(0.05,0,0,0.05,165.79999999999998,0)" xlink:href="#ai"/><use transform="matrix(0.05,0,0,0.05,169.74999999999997,0)" xlink:href="#ag"/><use transform="matrix(0.05,0,0,0.05,173.69999999999996,0)" xlink:href="#ah"/><use transform="matrix(0.05,0,0,0.05,182.69999999999996,0)" xlink:href="#at"/><use transform="matrix(0.05,0,0,0.05,191.69999999999996,0)" xlink:href="#au"/><use transform="matrix(0.05,0,0,0.05,197.64999999999995,0)" xlink:href="#ak"/><use transform="matrix(0.05,0,0,0.05,206.64999999999998,0)" xlink:href="#U"/><use transform="matrix(0.05,0,0,0.05,216.64999999999998,0)" xlink:href="#V"/><use transform="matrix(0.05,0,0,0.05,226.64999999999998,0)" xlink:href="#W"/><use transform="matrix(0.05,0,0,0.05,236.64999999999998,0)" xlink:href="#U"/><use transform="matrix(0.05,0,0,0.05,246.64999999999998,0)" xlink:href="#O"/><use transform="matrix(0.05,0,0,0.05,252.5999999999999,0)" xlink:href="#ac"/></g><path d="M185-189c-5-48-123-54-124 2 14 75 158 14 163 119 3 78-121 87-175 55-17-10-28-26-33-46l33-7c5 56 141 63 141-1 0-78-155-14-162-118-5-82 145-84 179-34 5 7 8 16 11 25" id="aB"/><path d="M240 0l2-218c-23 76-54 145-80 218h-23L58-218 59 0H30v-248h44l77 211c21-75 51-140 76-211h43V0h-30" id="aC"/><g id="q"><use transform="matrix(0.05,0,0,0.05,0,0)" xlink:href="#ac"/><use transform="matrix(0.05,0,0,0.05,5,0)" xlink:href="#aB"/><use transform="matrix(0.05,0,0,0.05,17,0)" xlink:href="#ah"/><use transform="matrix(0.05,0,0,0.05,26,0)" xlink:href="#U"/><use transform="matrix(0.05,0,0,0.05,36,0)" xlink:href="#V"/><use transform="matrix(0.05,0,0,0.05,46,0)" xlink:href="#U"/><use transform="matrix(0.05,0,0,0.05,56,0)" xlink:href="#aC"/><use transform="matrix(0.05,0,0,0.05,70.95,0)" xlink:href="#R"/><use transform="matrix(0.05,0,0,0.05,80.95,0)" xlink:href="#V"/><use transform="matrix(0.05,0,0,0.05,90.95,0)" xlink:href="#R"/><use transform="matrix(0.05,0,0,0.05,100.95,0)" xlink:href="#Q"/><use transform="matrix(0.05,0,0,0.05,110.95,0)" xlink:href="#U"/><use transform="matrix(0.05,0,0,0.05,120.95,0)" xlink:href="#O"/><path d="M-.9 1.25h128.7v1.32H-.9z"/></g><path d="M206 0h-36l-40-164L89 0H53L-1-190h32L70-26l43-164h34l41 164 42-164h31" id="aD"/><g id="r"><use transform="matrix(0.05,0,0,0.05,0,0)" xlink:href="#V"/><use transform="matrix(0.05,0,0,0.05,10,0)" xlink:href="#U"/><use transform="matrix(0.05,0,0,0.05,20,0)" xlink:href="#aD"/></g><g id="s"><use transform="matrix(0.05,0,0,0.05,0,0)" xlink:href="#aB"/><use transform="matrix(0.05,0,0,0.05,12,0)" xlink:href="#ah"/><use transform="matrix(0.05,0,0,0.05,21,0)" xlink:href="#U"/><use transform="matrix(0.05,0,0,0.05,31,0)" xlink:href="#V"/><use transform="matrix(0.05,0,0,0.05,41,0)" xlink:href="#U"/><use transform="matrix(0.05,0,0,0.05,51,0)" xlink:href="#aC"/><use transform="matrix(0.05,0,0,0.05,65.95,0)" xlink:href="#R"/><use transform="matrix(0.05,0,0,0.05,75.95,0)" xlink:href="#V"/><use transform="matrix(0.05,0,0,0.05,85.95,0)" xlink:href="#R"/><use transform="matrix(0.05,0,0,0.05,95.95,0)" xlink:href="#Q"/><use transform="matrix(0.05,0,0,0.05,105.95,0)" xlink:href="#U"/><use transform="matrix(0.05,0,0,0.05,115.95,0)" xlink:href="#O"/><use transform="matrix(0.05,0,0,0.05,121.9,0)" xlink:href="#au"/><use transform="matrix(0.05,0,0,0.05,127.85000000000001,0)" xlink:href="#aA"/></g><g id="t"><use transform="matrix(0.05,0,0,0.05,0,0)" xlink:href="#ac"/><use transform="matrix(0.05,0,0,0.05,5,0)" xlink:href="#aB"/><use transform="matrix(0.05,0,0,0.05,17,0)" xlink:href="#ah"/><use transform="matrix(0.05,0,0,0.05,26,0)" xlink:href="#U"/><use transform="matrix(0.05,0,0,0.05,36,0)" xlink:href="#V"/><use transform="matrix(0.05,0,0,0.05,46,0)" xlink:href="#U"/></g><g id="u"><use transform="matrix(0.05,0,0,0.05,0,0)" xlink:href="#as"/><use transform="matrix(0.05,0,0,0.05,12.950000000000001,0)" xlink:href="#O"/><use transform="matrix(0.05,0,0,0.05,18.900000000000002,0)" xlink:href="#U"/><use transform="matrix(0.05,0,0,0.05,28.900000000000002,0)" xlink:href="#R"/><use transform="matrix(0.05,0,0,0.05,38.900000000000006,0)" xlink:href="#X"/><use transform="matrix(0.05,0,0,0.05,43.900000000000006,0)" xlink:href="#U"/><use transform="matrix(0.05,0,0,0.05,53.900000000000006,0)" xlink:href="#aB"/><use transform="matrix(0.05,0,0,0.05,65.9,0)" xlink:href="#ah"/><use transform="matrix(0.05,0,0,0.05,74.9,0)" xlink:href="#U"/><use transform="matrix(0.05,0,0,0.05,84.9,0)" xlink:href="#V"/><use transform="matrix(0.05,0,0,0.05,94.9,0)" xlink:href="#U"/><use transform="matrix(0.05,0,0,0.05,104.9,0)" xlink:href="#au"/><use transform="matrix(0.05,0,0,0.05,110.85000000000001,0)" xlink:href="#aA"/><path d="M-.9 1.25h118.6v1.32H-.9z"/></g><path d="M30 0v-248h33v221h125V0H30" id="aE"/><path d="M179-190L93 31C79 59 56 82 12 73V49c39 6 53-20 64-50L1-190h34L92-34l54-156h33" id="aF"/><g id="v"><use transform="matrix(0.05,0,0,0.05,0,0)" xlink:href="#aE"/><use transform="matrix(0.05,0,0,0.05,10,0)" xlink:href="#P"/><use transform="matrix(0.05,0,0,0.05,20,0)" xlink:href="#R"/><use transform="matrix(0.05,0,0,0.05,30,0)" xlink:href="#W"/><use transform="matrix(0.05,0,0,0.05,40,0)" xlink:href="#aB"/><use transform="matrix(0.05,0,0,0.05,52,0)" xlink:href="#ah"/><use transform="matrix(0.05,0,0,0.05,61,0)" xlink:href="#U"/><use transform="matrix(0.05,0,0,0.05,71,0)" xlink:href="#V"/><use transform="matrix(0.05,0,0,0.05,81,0)" xlink:href="#U"/><use transform="matrix(0.05,0,0,0.05,91,0)" xlink:href="#az"/><use transform="matrix(0.05,0,0,0.05,103,0)" xlink:href="#ak"/><use transform="matrix(0.05,0,0,0.05,112,0)" xlink:href="#aF"/><use transform="matrix(0.05,0,0,0.05,121,0)" xlink:href="#V"/><use transform="matrix(0.05,0,0,0.05,131,0)" xlink:href="#ah"/><path d="M-.9 1.25h141.8v1.32H-.9z"/></g><path d="M141 0L90-78 38 0H4l68-98-65-92h35l48 74 47-74h35l-64 92 68 98h-35" id="aG"/><g id="w"><use transform="matrix(0.05,0,0,0.05,0,0)" xlink:href="#au"/><path d="M-.9 1.25h7.75v1.32H-.9z"/><use transform="matrix(0.05925925925925927,0,0,0.05925925925925927,5.95,0)" xlink:href="#ak"/><use transform="matrix(0.05925925925925927,0,0,0.05925925925925927,16.616666666666667,0)" xlink:href="#ah"/><use transform="matrix(0.05925925925925927,0,0,0.05925925925925927,27.283333333333335,0)" xlink:href="#U"/><use transform="matrix(0.05925925925925927,0,0,0.05925925925925927,39.135185185185186,0)" xlink:href="#V"/><use transform="matrix(0.05925925925925927,0,0,0.05925925925925927,50.98703703703704,0)" xlink:href="#U"/><use transform="matrix(0.05925925925925927,0,0,0.05925925925925927,62.838888888888896,0)" xlink:href="#Y"/><use transform="matrix(0.05925925925925927,0,0,0.05925925925925927,77.06111111111112,0)" xlink:href="#Z"/><use transform="matrix(0.05925925925925927,0,0,0.05925925925925927,88.91296296296296,0)" xlink:href="#ag"/><use transform="matrix(0.05925925925925927,0,0,0.05925925925925927,93.59444444444445,0)" xlink:href="#ai"/><use transform="matrix(0.05925925925925927,0,0,0.05925925925925927,98.27592592592593,0)" xlink:href="#W"/><use transform="matrix(0.05925925925925927,0,0,0.05925925925925927,110.12777777777778,0)" xlink:href="#al"/><use transform="matrix(0.05925925925925927,0,0,0.05925925925925927,116.0537037037037,0)" xlink:href="#V"/><use transform="matrix(0.05925925925925927,0,0,0.05925925925925927,127.90555555555555,0)" xlink:href="#W"/><use transform="matrix(0.05925925925925927,0,0,0.05925925925925927,139.7574074074074,0)" xlink:href="#U"/><use transform="matrix(0.05925925925925927,0,0,0.05925925925925927,151.60925925925926,0)" xlink:href="#aG"/><use transform="matrix(0.05925925925925927,0,0,0.05925925925925927,162.27592592592592,0)" xlink:href="#ac"/></g><g id="x"><use transform="matrix(0.05925925925925927,0,0,0.05925925925925927,0,0)" xlink:href="#ag"/><use transform="matrix(0.05925925925925927,0,0,0.05925925925925927,4.681481481481482,0)" xlink:href="#V"/><use transform="matrix(0.05925925925925927,0,0,0.05925925925925927,16.533333333333335,0)" xlink:href="#X"/><use transform="matrix(0.05925925925925927,0,0,0.05925925925925927,22.459259259259262,0)" xlink:href="#aw"/></g><g id="y"><use transform="matrix(0.05925925925925927,0,0,0.05925925925925927,0,0)" xlink:href="#S"/><use transform="matrix(0.05925925925925927,0,0,0.05925925925925927,17.718518518518522,0)" xlink:href="#P"/><use transform="matrix(0.05925925925925927,0,0,0.05925925925925927,29.570370370370377,0)" xlink:href="#W"/><use transform="matrix(0.05925925925925927,0,0,0.05925925925925927,41.42222222222223,0)" xlink:href="#U"/><use transform="matrix(0.05925925925925927,0,0,0.05925925925925927,53.274074074074086,0)" xlink:href="#ac"/></g><g id="z"><use transform="matrix(0.05925925925925927,0,0,0.05925925925925927,0,0)" xlink:href="#aE"/><use transform="matrix(0.05925925925925927,0,0,0.05925925925925927,11.851851851851853,0)" xlink:href="#P"/><use transform="matrix(0.05925925925925927,0,0,0.05925925925925927,23.703703703703706,0)" xlink:href="#R"/><use transform="matrix(0.05925925925925927,0,0,0.05925925925925927,35.55555555555556,0)" xlink:href="#W"/><use transform="matrix(0.05925925925925927,0,0,0.05925925925925927,47.40740740740741,0)" xlink:href="#aB"/><use transform="matrix(0.05925925925925927,0,0,0.05925925925925927,61.62962962962964,0)" xlink:href="#ah"/><use transform="matrix(0.05925925925925927,0,0,0.05925925925925927,72.2962962962963,0)" xlink:href="#U"/><use transform="matrix(0.05925925925925927,0,0,0.05925925925925927,84.14814814814815,0)" xlink:href="#V"/><use transform="matrix(0.05925925925925927,0,0,0.05925925925925927,96,0)" xlink:href="#U"/><use transform="matrix(0.05925925925925927,0,0,0.05925925925925927,107.85185185185185,0)" xlink:href="#aC"/><use transform="matrix(0.05925925925925927,0,0,0.05925925925925927,125.57037037037037,0)" xlink:href="#P"/><use transform="matrix(0.05925925925925927,0,0,0.05925925925925927,137.42222222222222,0)" xlink:href="#W"/><use transform="matrix(0.05925925925925927,0,0,0.05925925925925927,149.27407407407406,0)" xlink:href="#U"/><use transform="matrix(0.05,0,0,0.05,161.1259259259259,0)" xlink:href="#aA"/><path d="M160.23 1.25h7.75v1.32h-7.75z"/></g><g id="A"><use transform="matrix(0.05,0,0,0.05,0,0)" xlink:href="#aB"/><use transform="matrix(0.05,0,0,0.05,12,0)" xlink:href="#X"/><use transform="matrix(0.05,0,0,0.05,17,0)" xlink:href="#R"/><use transform="matrix(0.05,0,0,0.05,27,0)" xlink:href="#O"/><use transform="matrix(0.05,0,0,0.05,32.95,0)" xlink:href="#X"/><use transform="matrix(0.05,0,0,0.05,37.95,0)" xlink:href="#au"/><use transform="matrix(0.05,0,0,0.05,43.900000000000006,0)" xlink:href="#aA"/></g><path d="M190 0L58-211 59 0H30v-248h39L202-35l-2-213h31V0h-41" id="aH"/><g id="B"><use transform="matrix(0.05,0,0,0.05,0,0)" xlink:href="#aH"/><use transform="matrix(0.05,0,0,0.05,12.950000000000001,0)" xlink:href="#U"/><use transform="matrix(0.05,0,0,0.05,22.950000000000003,0)" xlink:href="#X"/><use transform="matrix(0.05,0,0,0.05,27.950000000000003,0)" xlink:href="#aD"/><use transform="matrix(0.05,0,0,0.05,40.900000000000006,0)" xlink:href="#P"/><use transform="matrix(0.05,0,0,0.05,50.900000000000006,0)" xlink:href="#O"/><use transform="matrix(0.05,0,0,0.05,56.85,0)" xlink:href="#at"/><use transform="matrix(0.05,0,0,0.05,65.85000000000001,0)" xlink:href="#aC"/><use transform="matrix(0.05,0,0,0.05,80.80000000000001,0)" xlink:href="#R"/><use transform="matrix(0.05,0,0,0.05,90.80000000000001,0)" xlink:href="#V"/><use transform="matrix(0.05,0,0,0.05,100.80000000000001,0)" xlink:href="#R"/><use transform="matrix(0.05,0,0,0.05,110.80000000000001,0)" xlink:href="#Q"/><use transform="matrix(0.05,0,0,0.05,120.80000000000001,0)" xlink:href="#U"/><use transform="matrix(0.05,0,0,0.05,130.8,0)" xlink:href="#O"/></g><g id="C"><use transform="matrix(0.05,0,0,0.05,0,0)" xlink:href="#aH"/><use transform="matrix(0.05,0,0,0.05,12.950000000000001,0)" xlink:href="#U"/><use transform="matrix(0.05,0,0,0.05,22.950000000000003,0)" xlink:href="#X"/><use transform="matrix(0.05,0,0,0.05,27.950000000000003,0)" xlink:href="#aD"/><use transform="matrix(0.05,0,0,0.05,40.900000000000006,0)" xlink:href="#P"/><use transform="matrix(0.05,0,0,0.05,50.900000000000006,0)" xlink:href="#O"/><use transform="matrix(0.05,0,0,0.05,56.85,0)" xlink:href="#at"/><use transform="matrix(0.05,0,0,0.05,65.85000000000001,0)" xlink:href="#aC"/><use transform="matrix(0.05,0,0,0.05,80.80000000000001,0)" xlink:href="#R"/><use transform="matrix(0.05,0,0,0.05,90.80000000000001,0)" xlink:href="#V"/><use transform="matrix(0.05,0,0,0.05,100.80000000000001,0)" xlink:href="#R"/><use transform="matrix(0.05,0,0,0.05,110.80000000000001,0)" xlink:href="#Q"/><use transform="matrix(0.05,0,0,0.05,120.80000000000001,0)" xlink:href="#U"/><use transform="matrix(0.05,0,0,0.05,130.8,0)" xlink:href="#O"/><use transform="matrix(0.05,0,0,0.05,136.75,0)" xlink:href="#au"/><use transform="matrix(0.05,0,0,0.05,142.7,0)" xlink:href="#aA"/></g><g id="D"><use transform="matrix(0.05,0,0,0.05,0,0)" xlink:href="#aB"/><use transform="matrix(0.05,0,0,0.05,12,0)" xlink:href="#X"/><use transform="matrix(0.05,0,0,0.05,17,0)" xlink:href="#R"/><use transform="matrix(0.05,0,0,0.05,27,0)" xlink:href="#O"/><use transform="matrix(0.05,0,0,0.05,32.95,0)" xlink:href="#X"/><use transform="matrix(0.05,0,0,0.05,37.95,0)" xlink:href="#aq"/><use transform="matrix(0.05,0,0,0.05,50.900000000000006,0)" xlink:href="#P"/><use transform="matrix(0.05,0,0,0.05,60.900000000000006,0)" xlink:href="#ak"/><use transform="matrix(0.05,0,0,0.05,69.9,0)" xlink:href="#X"/><use transform="matrix(0.05,0,0,0.05,74.9,0)" xlink:href="#au"/><use transform="matrix(0.05,0,0,0.05,80.85000000000001,0)" xlink:href="#aA"/></g><path d="M101-251c82-7 93 87 43 132L82-64C71-53 59-42 53-27h129V0H18c2-99 128-94 128-182 0-28-16-43-45-43s-46 15-49 41l-32-3c6-41 34-60 81-64" id="aI"/><g id="E"><use transform="matrix(0.05,0,0,0.05,0,0)" xlink:href="#Y"/><use transform="matrix(0.05,0,0,0.05,12,0)" xlink:href="#U"/><use transform="matrix(0.05,0,0,0.05,22,0)" xlink:href="#V"/><use transform="matrix(0.05,0,0,0.05,32,0)" xlink:href="#Z"/><use transform="matrix(0.05,0,0,0.05,42,0)" xlink:href="#X"/><use transform="matrix(0.05,0,0,0.05,47,0)" xlink:href="#aa"/><use transform="matrix(0.05,0,0,0.05,56,0)" xlink:href="#U"/><use transform="matrix(0.05,0,0,0.05,66,0)" xlink:href="#O"/><use transform="matrix(0.05,0,0,0.05,71.95,0)" xlink:href="#aI"/></g><path d="M127-220V0H93v-220H8v-28h204v28h-85" id="aJ"/><g id="F"><use transform="matrix(0.05,0,0,0.05,0,0)" xlink:href="#aJ"/><use transform="matrix(0.05,0,0,0.05,8.950000000000001,0)" xlink:href="#U"/><use transform="matrix(0.05,0,0,0.05,18.950000000000003,0)" xlink:href="#aG"/><use transform="matrix(0.05,0,0,0.05,27.950000000000003,0)" xlink:href="#X"/></g><g id="G"><use transform="matrix(0.05,0,0,0.05,0,0)" xlink:href="#Y"/><use transform="matrix(0.05,0,0,0.05,12,0)" xlink:href="#U"/><use transform="matrix(0.05,0,0,0.05,22,0)" xlink:href="#V"/><use transform="matrix(0.05,0,0,0.05,32,0)" xlink:href="#Z"/><use transform="matrix(0.05,0,0,0.05,42,0)" xlink:href="#X"/><use transform="matrix(0.05,0,0,0.05,47,0)" xlink:href="#aa"/><use transform="matrix(0.05,0,0,0.05,56,0)" xlink:href="#U"/><use transform="matrix(0.05,0,0,0.05,66,0)" xlink:href="#O"/><use transform="matrix(0.05,0,0,0.05,71.95,0)" xlink:href="#aI"/></g><g id="H"><use transform="matrix(0.05,0,0,0.05,0,0)" xlink:href="#ap"/><use transform="matrix(0.05,0,0,0.05,12.950000000000001,0)" xlink:href="#R"/><use transform="matrix(0.05,0,0,0.05,22.950000000000003,0)" xlink:href="#W"/><use transform="matrix(0.05,0,0,0.05,32.95,0)" xlink:href="#ag"/><use transform="matrix(0.05,0,0,0.05,36.900000000000006,0)" xlink:href="#P"/><use transform="matrix(0.05,0,0,0.05,46.900000000000006,0)" xlink:href="#Y"/><use transform="matrix(0.05,0,0,0.05,58.900000000000006,0)" xlink:href="#Z"/><use transform="matrix(0.05,0,0,0.05,68.9,0)" xlink:href="#X"/><use transform="matrix(0.05,0,0,0.05,73.9,0)" xlink:href="#X"/><use transform="matrix(0.05,0,0,0.05,78.9,0)" xlink:href="#P"/><use transform="matrix(0.05,0,0,0.05,88.9,0)" xlink:href="#V"/><use transform="matrix(0.05,0,0,0.05,98.9,0)" xlink:href="#ad"/><use transform="matrix(0.05,0,0,0.05,112.9,0)" xlink:href="#Z"/><use transform="matrix(0.05,0,0,0.05,122.9,0)" xlink:href="#U"/><use transform="matrix(0.05,0,0,0.05,132.9,0)" xlink:href="#ak"/><use transform="matrix(0.05,0,0,0.05,141.9,0)" xlink:href="#X"/><use transform="matrix(0.05,0,0,0.05,146.9,0)" xlink:href="#ar"/><use transform="matrix(0.05,0,0,0.05,156.9,0)" xlink:href="#as"/><use transform="matrix(0.05,0,0,0.05,169.85,0)" xlink:href="#ai"/><use transform="matrix(0.05,0,0,0.05,173.79999999999998,0)" xlink:href="#ag"/><use transform="matrix(0.05,0,0,0.05,177.74999999999997,0)" xlink:href="#ah"/><use transform="matrix(0.05,0,0,0.05,186.74999999999997,0)" xlink:href="#at"/><use transform="matrix(0.05,0,0,0.05,195.74999999999997,0)" xlink:href="#au"/><use transform="matrix(0.05,0,0,0.05,201.69999999999996,0)" xlink:href="#ak"/><use transform="matrix(0.05,0,0,0.05,210.69999999999996,0)" xlink:href="#U"/><use transform="matrix(0.05,0,0,0.05,220.69999999999996,0)" xlink:href="#V"/><use transform="matrix(0.05,0,0,0.05,230.69999999999996,0)" xlink:href="#W"/><use transform="matrix(0.05,0,0,0.05,240.69999999999996,0)" xlink:href="#U"/><use transform="matrix(0.05,0,0,0.05,250.69999999999996,0)" xlink:href="#O"/><use transform="matrix(0.05,0,0,0.05,256.65,0)" xlink:href="#ac"/></g><g id="I"><use transform="matrix(0.05,0,0,0.05,0,0)" xlink:href="#Y"/><use transform="matrix(0.05,0,0,0.05,12,0)" xlink:href="#Z"/><use transform="matrix(0.05,0,0,0.05,22,0)" xlink:href="#X"/><use transform="matrix(0.05,0,0,0.05,27,0)" xlink:href="#X"/><use transform="matrix(0.05,0,0,0.05,32,0)" xlink:href="#P"/><use transform="matrix(0.05,0,0,0.05,42,0)" xlink:href="#V"/><use transform="matrix(0.05,0,0,0.05,52,0)" xlink:href="#as"/><use transform="matrix(0.05,0,0,0.05,64.95,0)" xlink:href="#af"/><use transform="matrix(0.05,0,0,0.05,74.95,0)" xlink:href="#P"/><use transform="matrix(0.05,0,0,0.05,84.95,0)" xlink:href="#P"/><use transform="matrix(0.05,0,0,0.05,94.95,0)" xlink:href="#ak"/><use transform="matrix(0.05,0,0,0.05,103.95,0)" xlink:href="#U"/><use transform="matrix(0.05,0,0,0.05,113.95,0)" xlink:href="#N"/><use transform="matrix(0.05,0,0,0.05,125.95,0)" xlink:href="#U"/><use transform="matrix(0.05,0,0,0.05,135.95,0)" xlink:href="#W"/><use transform="matrix(0.05,0,0,0.05,145.95,0)" xlink:href="#U"/><use transform="matrix(0.05,0,0,0.05,155.95,0)" xlink:href="#ak"/><use transform="matrix(0.05,0,0,0.05,164.95,0)" xlink:href="#X"/><use transform="matrix(0.05,0,0,0.05,169.95,0)" xlink:href="#O"/><use transform="matrix(0.05,0,0,0.05,175.89999999999998,0)" xlink:href="#ag"/><use transform="matrix(0.05,0,0,0.05,179.84999999999997,0)" xlink:href="#R"/><use transform="matrix(0.05,0,0,0.05,189.84999999999997,0)" xlink:href="#V"/><use transform="matrix(0.05,0,0,0.05,199.84999999999997,0)" xlink:href="#ar"/><use transform="matrix(0.05,0,0,0.05,209.84999999999997,0)" xlink:href="#as"/><use transform="matrix(0.05,0,0,0.05,222.79999999999995,0)" xlink:href="#ai"/><use transform="matrix(0.05,0,0,0.05,226.74999999999991,0)" xlink:href="#ag"/><use transform="matrix(0.05,0,0,0.05,230.69999999999993,0)" xlink:href="#ah"/><use transform="matrix(0.05,0,0,0.05,239.69999999999993,0)" xlink:href="#at"/><use transform="matrix(0.05,0,0,0.05,248.69999999999993,0)" xlink:href="#au"/><use transform="matrix(0.05,0,0,0.05,254.64999999999992,0)" xlink:href="#ak"/><use transform="matrix(0.05,0,0,0.05,263.6499999999999,0)" xlink:href="#U"/><use transform="matrix(0.05,0,0,0.05,273.6499999999999,0)" xlink:href="#V"/><use transform="matrix(0.05,0,0,0.05,283.6499999999999,0)" xlink:href="#W"/><use transform="matrix(0.05,0,0,0.05,293.6499999999999,0)" xlink:href="#U"/><use transform="matrix(0.05,0,0,0.05,303.6499999999999,0)" xlink:href="#O"/><use transform="matrix(0.05,0,0,0.05,309.5999999999999,0)" xlink:href="#ac"/></g><g id="J"><use transform="matrix(0.05,0,0,0.05,0,0)" xlink:href="#aj"/><use transform="matrix(0.05,0,0,0.05,12.950000000000001,0)" xlink:href="#V"/><use transform="matrix(0.05,0,0,0.05,22.950000000000003,0)" xlink:href="#ai"/><use transform="matrix(0.05,0,0,0.05,26.900000000000002,0)" xlink:href="#P"/><use transform="matrix(0.05,0,0,0.05,36.900000000000006,0)" xlink:href="#R"/><use transform="matrix(0.05,0,0,0.05,46.900000000000006,0)" xlink:href="#W"/><use transform="matrix(0.05,0,0,0.05,56.900000000000006,0)" xlink:href="#aB"/><use transform="matrix(0.05,0,0,0.05,68.9,0)" xlink:href="#ah"/><use transform="matrix(0.05,0,0,0.05,77.9,0)" xlink:href="#U"/><use transform="matrix(0.05,0,0,0.05,87.9,0)" xlink:href="#V"/><use transform="matrix(0.05,0,0,0.05,97.9,0)" xlink:href="#U"/><use transform="matrix(0.05,0,0,0.05,107.9,0)" xlink:href="#az"/><use transform="matrix(0.05,0,0,0.05,119.9,0)" xlink:href="#ak"/><use transform="matrix(0.05,0,0,0.05,128.9,0)" xlink:href="#aF"/><use transform="matrix(0.05,0,0,0.05,137.9,0)" xlink:href="#V"/><use transform="matrix(0.05,0,0,0.05,147.9,0)" xlink:href="#ah"/><use transform="matrix(0.05,0,0,0.05,156.9,0)" xlink:href="#au"/><use transform="matrix(0.05925925925925927,0,0,0.05925925925925927,162.85,0)" xlink:href="#ak"/><use transform="matrix(0.05925925925925927,0,0,0.05925925925925927,173.51666666666665,0)" xlink:href="#ah"/><use transform="matrix(0.05925925925925927,0,0,0.05925925925925927,184.1833333333333,0)" xlink:href="#U"/><use transform="matrix(0.05925925925925927,0,0,0.05925925925925927,196.03518518518516,0)" xlink:href="#V"/><use transform="matrix(0.05925925925925927,0,0,0.05925925925925927,207.887037037037,0)" xlink:href="#U"/><use transform="matrix(0.05925925925925927,0,0,0.05925925925925927,219.73888888888885,0)" xlink:href="#Y"/><use transform="matrix(0.05925925925925927,0,0,0.05925925925925927,233.96111111111108,0)" xlink:href="#Z"/><use transform="matrix(0.05925925925925927,0,0,0.05925925925925927,245.81296296296296,0)" xlink:href="#ag"/><use transform="matrix(0.05925925925925927,0,0,0.05925925925925927,250.49444444444444,0)" xlink:href="#ai"/><use transform="matrix(0.05925925925925927,0,0,0.05925925925925927,255.17592592592592,0)" xlink:href="#W"/><use transform="matrix(0.05925925925925927,0,0,0.05925925925925927,267.02777777777777,0)" xlink:href="#al"/><use transform="matrix(0.05925925925925927,0,0,0.05925925925925927,272.9537037037037,0)" xlink:href="#V"/><use transform="matrix(0.05925925925925927,0,0,0.05925925925925927,284.80555555555554,0)" xlink:href="#W"/><use transform="matrix(0.05925925925925927,0,0,0.05925925925925927,296.6574074074074,0)" xlink:href="#U"/><use transform="matrix(0.05925925925925927,0,0,0.05925925925925927,308.50925925925924,0)" xlink:href="#aG"/><use transform="matrix(0.05925925925925927,0,0,0.05925925925925927,319.1759259259259,0)" xlink:href="#ac"/></g><g id="K"><use transform="matrix(0.05925925925925927,0,0,0.05925925925925927,0,0)" xlink:href="#ag"/><use transform="matrix(0.05925925925925927,0,0,0.05925925925925927,4.681481481481482,0)" xlink:href="#V"/><use transform="matrix(0.05925925925925927,0,0,0.05925925925925927,16.533333333333335,0)" xlink:href="#X"/><use transform="matrix(0.05,0,0,0.05,22.459259259259262,0)" xlink:href="#aA"/></g><g id="L"><use transform="matrix(0.05,0,0,0.05,0,0)" xlink:href="#aB"/><use transform="matrix(0.05,0,0,0.05,12,0)" xlink:href="#X"/><use transform="matrix(0.05,0,0,0.05,17,0)" xlink:href="#P"/><use transform="matrix(0.05,0,0,0.05,27,0)" xlink:href="#ae"/><use transform="matrix(0.05,0,0,0.05,37,0)" xlink:href="#aq"/><use transform="matrix(0.05,0,0,0.05,49.95,0)" xlink:href="#P"/><use transform="matrix(0.05,0,0,0.05,59.95,0)" xlink:href="#ak"/><use transform="matrix(0.05,0,0,0.05,68.95,0)" xlink:href="#X"/><use transform="matrix(0.05,0,0,0.05,73.95,0)" xlink:href="#au"/><use transform="matrix(0.05,0,0,0.05,79.9,0)" xlink:href="#aA"/></g><g id="M"><use transform="matrix(0.05,0,0,0.05,0,0)" xlink:href="#aH"/><use transform="matrix(0.05,0,0,0.05,12.950000000000001,0)" xlink:href="#U"/><use transform="matrix(0.05,0,0,0.05,22.950000000000003,0)" xlink:href="#X"/><use transform="matrix(0.05,0,0,0.05,27.950000000000003,0)" xlink:href="#aD"/><use transform="matrix(0.05,0,0,0.05,40.900000000000006,0)" xlink:href="#P"/><use transform="matrix(0.05,0,0,0.05,50.900000000000006,0)" xlink:href="#O"/><use transform="matrix(0.05,0,0,0.05,56.85,0)" xlink:href="#at"/><use transform="matrix(0.05,0,0,0.05,65.85000000000001,0)" xlink:href="#aC"/><use transform="matrix(0.05,0,0,0.05,80.80000000000001,0)" xlink:href="#R"/><use transform="matrix(0.05,0,0,0.05,90.80000000000001,0)" xlink:href="#V"/><use transform="matrix(0.05,0,0,0.05,100.80000000000001,0)" xlink:href="#R"/><use transform="matrix(0.05,0,0,0.05,110.80000000000001,0)" xlink:href="#Q"/><use transform="matrix(0.05,0,0,0.05,120.80000000000001,0)" xlink:href="#U"/><use transform="matrix(0.05,0,0,0.05,130.8,0)" xlink:href="#O"/><use transform="matrix(0.05,0,0,0.05,136.75,0)" xlink:href="#au"/><use transform="matrix(0.05,0,0,0.05,142.7,0)" xlink:href="#aA"/></g></defs></g></svg>